<svg xmlns="http://www.w3.org/2000/svg" xmlns:xlink="http://www.w3.org/1999/xlink" width="1200" zoomAndPan="magnify" viewBox="0 0 900 449.999984" height="600" preserveAspectRatio="xMidYMid meet" version="1.2"><defs><linearGradient x1="150.000013" gradientTransform="matrix(0.75,0,0,0.75,0.0000163,0)" y1="749.999987" x2="1049.999975" gradientUnits="userSpaceOnUse" y2="-149.999975" id="f4d00c7baf"><stop style="stop-color:#6a8aff;stop-opacity:1;" offset="0"/><stop style="stop-color:#6a8aff;stop-opacity:1;" offset="0.0078125"/><stop style="stop-color:#6b8bff;stop-opacity:1;" offset="0.015625"/><stop style="stop-color:#6b8cff;stop-opacity:1;" offset="0.0234375"/><stop style="stop-color:#6c8dff;stop-opacity:1;" offset="0.03125"/><stop style="stop-color:#6d8eff;stop-opacity:1;" offset="0.0390625"/><stop style="stop-color:#6d8fff;stop-opacity:1;" offset="0.046875"/><stop style="stop-color:#6e90ff;stop-opacity:1;" offset="0.0546875"/><stop style="stop-color:#6e91ff;stop-opacity:1;" offset="0.0625"/><stop style="stop-color:#6f92ff;stop-opacity:1;" offset="0.0703125"/><stop style="stop-color:#6f92ff;stop-opacity:1;" offset="0.078125"/><stop style="stop-color:#7093ff;stop-opacity:1;" offset="0.0859375"/><stop style="stop-color:#7094ff;stop-opacity:1;" offset="0.09375"/><stop style="stop-color:#7195ff;stop-opacity:1;" offset="0.101562"/><stop style="stop-color:#7296ff;stop-opacity:1;" offset="0.109375"/><stop style="stop-color:#7297ff;stop-opacity:1;" offset="0.117188"/><stop style="stop-color:#7398ff;stop-opacity:1;" offset="0.125"/><stop style="stop-color:#7399ff;stop-opacity:1;" offset="0.132812"/><stop style="stop-color:#7499ff;stop-opacity:1;" offset="0.140625"/><stop style="stop-color:#749aff;stop-opacity:1;" offset="0.148437"/><stop style="stop-color:#759bff;stop-opacity:1;" offset="0.15625"/><stop style="stop-color:#769cff;stop-opacity:1;" offset="0.164062"/><stop style="stop-color:#769dff;stop-opacity:1;" offset="0.171875"/><stop style="stop-color:#779eff;stop-opacity:1;" offset="0.179687"/><stop style="stop-color:#779fff;stop-opacity:1;" offset="0.1875"/><stop style="stop-color:#78a0ff;stop-opacity:1;" offset="0.195312"/><stop style="stop-color:#78a1ff;stop-opacity:1;" offset="0.203125"/><stop style="stop-color:#79a1ff;stop-opacity:1;" offset="0.210937"/><stop style="stop-color:#79a2ff;stop-opacity:1;" offset="0.21875"/><stop style="stop-color:#7aa3ff;stop-opacity:1;" offset="0.226562"/><stop style="stop-color:#7ba4ff;stop-opacity:1;" offset="0.234375"/><stop style="stop-color:#7ba5ff;stop-opacity:1;" offset="0.242187"/><stop style="stop-color:#7ca6ff;stop-opacity:1;" offset="0.25"/><stop style="stop-color:#7ca7ff;stop-opacity:1;" offset="0.257812"/><stop style="stop-color:#7da8ff;stop-opacity:1;" offset="0.265625"/><stop style="stop-color:#7da8ff;stop-opacity:1;" offset="0.273438"/><stop style="stop-color:#7ea9ff;stop-opacity:1;" offset="0.28125"/><stop style="stop-color:#7faaff;stop-opacity:1;" offset="0.289062"/><stop style="stop-color:#7fabff;stop-opacity:1;" offset="0.296875"/><stop style="stop-color:#80acff;stop-opacity:1;" offset="0.304688"/><stop style="stop-color:#80adff;stop-opacity:1;" offset="0.3125"/><stop style="stop-color:#81aeff;stop-opacity:1;" offset="0.320312"/><stop style="stop-color:#81afff;stop-opacity:1;" offset="0.328125"/><stop style="stop-color:#82b0ff;stop-opacity:1;" offset="0.333333"/><stop style="stop-color:#82b0ff;stop-opacity:1;" offset="0.335938"/><stop style="stop-color:#82b0ff;stop-opacity:1;" offset="0.34375"/><stop style="stop-color:#83b1ff;stop-opacity:1;" offset="0.351562"/><stop style="stop-color:#84b2ff;stop-opacity:1;" offset="0.359375"/><stop style="stop-color:#84b3ff;stop-opacity:1;" offset="0.367188"/><stop style="stop-color:#85b4ff;stop-opacity:1;" offset="0.375"/><stop style="stop-color:#85b5ff;stop-opacity:1;" offset="0.382812"/><stop style="stop-color:#86b6ff;stop-opacity:1;" offset="0.390625"/><stop style="stop-color:#86b7ff;stop-opacity:1;" offset="0.398438"/><stop style="stop-color:#87b7ff;stop-opacity:1;" offset="0.40625"/><stop style="stop-color:#88b8ff;stop-opacity:1;" offset="0.414062"/><stop style="stop-color:#88b9ff;stop-opacity:1;" offset="0.421875"/><stop style="stop-color:#89baff;stop-opacity:1;" offset="0.429688"/><stop style="stop-color:#89bbff;stop-opacity:1;" offset="0.4375"/><stop style="stop-color:#8abcff;stop-opacity:1;" offset="0.445312"/><stop style="stop-color:#8abdff;stop-opacity:1;" offset="0.453125"/><stop style="stop-color:#8bbeff;stop-opacity:1;" offset="0.460938"/><stop style="stop-color:#8bbfff;stop-opacity:1;" offset="0.46875"/><stop style="stop-color:#8cbfff;stop-opacity:1;" offset="0.476562"/><stop style="stop-color:#8dc0ff;stop-opacity:1;" offset="0.484375"/><stop style="stop-color:#8dc1ff;stop-opacity:1;" offset="0.492188"/><stop style="stop-color:#8ec2ff;stop-opacity:1;" offset="0.5"/><stop style="stop-color:#8ec3ff;stop-opacity:1;" offset="0.507812"/><stop style="stop-color:#8fc4ff;stop-opacity:1;" offset="0.515625"/><stop style="stop-color:#8fc5ff;stop-opacity:1;" offset="0.523438"/><stop style="stop-color:#90c6ff;stop-opacity:1;" offset="0.53125"/><stop style="stop-color:#91c6ff;stop-opacity:1;" offset="0.539062"/><stop style="stop-color:#91c7ff;stop-opacity:1;" offset="0.546875"/><stop style="stop-color:#92c8ff;stop-opacity:1;" offset="0.554688"/><stop style="stop-color:#92c9ff;stop-opacity:1;" offset="0.5625"/><stop style="stop-color:#93caff;stop-opacity:1;" offset="0.570312"/><stop style="stop-color:#93cbff;stop-opacity:1;" offset="0.578125"/><stop style="stop-color:#94ccff;stop-opacity:1;" offset="0.585938"/><stop style="stop-color:#94cdff;stop-opacity:1;" offset="0.59375"/><stop style="stop-color:#95ceff;stop-opacity:1;" offset="0.601562"/><stop style="stop-color:#96ceff;stop-opacity:1;" offset="0.609375"/><stop style="stop-color:#96cfff;stop-opacity:1;" offset="0.617188"/><stop style="stop-color:#97d0ff;stop-opacity:1;" offset="0.625"/><stop style="stop-color:#97d1ff;stop-opacity:1;" offset="0.632812"/><stop style="stop-color:#98d2ff;stop-opacity:1;" offset="0.640625"/><stop style="stop-color:#98d3ff;stop-opacity:1;" offset="0.648438"/><stop style="stop-color:#99d4ff;stop-opacity:1;" offset="0.65625"/><stop style="stop-color:#9ad5ff;stop-opacity:1;" offset="0.664062"/><stop style="stop-color:#9ad5ff;stop-opacity:1;" offset="0.666667"/><stop style="stop-color:#9ad6ff;stop-opacity:1;" offset="0.671875"/><stop style="stop-color:#9bd6ff;stop-opacity:1;" offset="0.679688"/><stop style="stop-color:#9bd7ff;stop-opacity:1;" offset="0.6875"/><stop style="stop-color:#9cd8ff;stop-opacity:1;" offset="0.695312"/><stop style="stop-color:#9cd9ff;stop-opacity:1;" offset="0.703125"/><stop style="stop-color:#9ddaff;stop-opacity:1;" offset="0.710938"/><stop style="stop-color:#9ddbff;stop-opacity:1;" offset="0.71875"/><stop style="stop-color:#9edcff;stop-opacity:1;" offset="0.726562"/><stop style="stop-color:#9fddff;stop-opacity:1;" offset="0.734375"/><stop style="stop-color:#9fddff;stop-opacity:1;" offset="0.742188"/><stop style="stop-color:#a0deff;stop-opacity:1;" offset="0.75"/><stop style="stop-color:#a0dfff;stop-opacity:1;" offset="0.757812"/><stop style="stop-color:#a1e0ff;stop-opacity:1;" offset="0.765625"/><stop style="stop-color:#a1e1ff;stop-opacity:1;" offset="0.773438"/><stop style="stop-color:#a2e2ff;stop-opacity:1;" offset="0.78125"/><stop style="stop-color:#a3e3ff;stop-opacity:1;" offset="0.789062"/><stop style="stop-color:#a3e4ff;stop-opacity:1;" offset="0.796875"/><stop style="stop-color:#a4e4ff;stop-opacity:1;" offset="0.804688"/><stop style="stop-color:#a4e5ff;stop-opacity:1;" offset="0.8125"/><stop style="stop-color:#a5e6ff;stop-opacity:1;" offset="0.820312"/><stop style="stop-color:#a5e7ff;stop-opacity:1;" offset="0.828125"/><stop style="stop-color:#a6e8ff;stop-opacity:1;" offset="0.835938"/><stop style="stop-color:#a6e9ff;stop-opacity:1;" offset="0.84375"/><stop style="stop-color:#a7eaff;stop-opacity:1;" offset="0.851562"/><stop style="stop-color:#a8ebff;stop-opacity:1;" offset="0.859375"/><stop style="stop-color:#a8ecff;stop-opacity:1;" offset="0.867188"/><stop style="stop-color:#a9ecff;stop-opacity:1;" offset="0.875"/><stop style="stop-color:#a9edff;stop-opacity:1;" offset="0.882812"/><stop style="stop-color:#aaeeff;stop-opacity:1;" offset="0.890625"/><stop style="stop-color:#aaefff;stop-opacity:1;" offset="0.898438"/><stop style="stop-color:#abf0ff;stop-opacity:1;" offset="0.90625"/><stop style="stop-color:#acf1ff;stop-opacity:1;" offset="0.914062"/><stop style="stop-color:#acf2ff;stop-opacity:1;" offset="0.921875"/><stop style="stop-color:#adf3ff;stop-opacity:1;" offset="0.929688"/><stop style="stop-color:#adf3ff;stop-opacity:1;" offset="0.9375"/><stop style="stop-color:#aef4ff;stop-opacity:1;" offset="0.945312"/><stop style="stop-color:#aef5ff;stop-opacity:1;" offset="0.953125"/><stop style="stop-color:#aff6ff;stop-opacity:1;" offset="0.960938"/><stop style="stop-color:#aff7ff;stop-opacity:1;" offset="0.96875"/><stop style="stop-color:#b0f8ff;stop-opacity:1;" offset="0.976562"/><stop style="stop-color:#b1f9ff;stop-opacity:1;" offset="0.984375"/><stop style="stop-color:#b1faff;stop-opacity:1;" offset="0.992188"/><stop style="stop-color:#b2fbff;stop-opacity:1;" offset="1"/></linearGradient><clipPath id="d020750949"><rect x="0" width="564" y="0" height="294"/></clipPath></defs><g id="92f6f16887"><rect x="0" width="900" y="0" height="449.999984" style="fill:#ffffff;fill-opacity:1;stroke:none;"/><rect x="0" width="900" y="0" height="449.999984" style="fill:url(#f4d00c7baf);stroke:none;"/><path style=" stroke:none;fill-rule:nonzero;fill:#f470bf;fill-opacity:1;" d="M 268.683594 234.242188 C 269.257812 243.175781 265.140625 250.175781 259.386719 254.964844 C 262.304688 262.609375 259.90625 270.742188 255.183594 274.753906 C 250.066406 279.105469 237.699219 285.289062 226.125 278.222656 C 222.300781 287.628906 233.460938 299.316406 233.792969 303.800781 C 234.089844 307.902344 230.28125 314.960938 227.886719 309.59375 C 221.714844 295.761719 213.207031 291.847656 211.886719 289.757812 C 209.507812 285.984375 212.078125 283.710938 208.160156 281.046875 C 206.164062 279.691406 206.839844 279.074219 204.429688 278.894531 C 199.539062 278.53125 202.316406 278.296875 197.597656 279.753906 C 195.296875 280.464844 193 281.539062 190.8125 282.628906 C 185 285.519531 176.484375 290.867188 169.960938 290.820312 C 165.765625 290.789062 134.640625 294.226562 130.53125 269.011719 C 116.355469 280.28125 96.199219 282.414062 79.746094 274.648438 C 62.183594 266.359375 45.003906 248.058594 46.53125 226.113281 C 46.53125 226.113281 46.441406 204.207031 58.773438 199.023438 C 53.789062 188.457031 65.066406 176.964844 70 177.464844 C 74.296875 164.34375 80.976562 161.660156 80.976562 161.660156 C 86.128906 159.128906 87.933594 158.785156 91.703125 157.675781 C 91.703125 157.675781 100.386719 141.214844 120.277344 146.742188 C 123.269531 139.214844 139.960938 135.679688 145.292969 138.695312 C 145.292969 138.695312 152.859375 135.039062 161.449219 136.320312 C 161.449219 136.320312 166.769531 136.910156 171.132812 140.234375 C 174.925781 139.15625 179.179688 139.296875 183.238281 142.105469 C 183.238281 142.105469 191.054688 138.5625 202.96875 143.671875 C 202.96875 143.671875 210.886719 147.636719 212.90625 155.738281 C 220.683594 149.785156 229.960938 160.011719 227.992188 166.570312 C 233.222656 165.828125 236.683594 169.285156 238.1875 171.929688 C 240.332031 175.703125 239.335938 178.53125 238.628906 180.488281 C 246.109375 184.078125 249.0625 189.683594 247.707031 197.84375 C 257.710938 194.929688 264.996094 213.640625 260.757812 218.960938 C 260.757812 218.960938 268.257812 224.308594 268.683594 234.242188 "/><path style=" stroke:none;fill-rule:nonzero;fill:#c93ca6;fill-opacity:1;" d="M 208.003906 147.445312 C 207.800781 150.707031 207.484375 154.472656 205.289062 156.792969 C 202.378906 159.859375 197.933594 158.617188 194.332031 157.804688 C 192.289062 157.339844 189.207031 156.640625 187.660156 158.5625 C 185.183594 161.636719 188.035156 164.960938 190.691406 166.679688 C 195.453125 169.769531 203.4375 170.40625 208.125 166.796875 C 210.605469 164.890625 212.390625 162.03125 215.199219 160.550781 C 216.757812 159.730469 219.28125 158.398438 220.730469 160.101562 C 221.949219 161.53125 221.832031 163.863281 222.539062 165.546875 C 224.25 169.613281 227.96875 168.203125 231.371094 168.800781 C 234.027344 169.261719 236 171.28125 235.589844 174.070312 C 235.335938 175.804688 234.628906 177.707031 235.304688 179.433594 C 235.914062 180.992188 237.082031 182.148438 238.363281 183.179688 C 240.675781 185.035156 243.039062 186.71875 243.96875 189.667969 C 244.894531 192.605469 245.292969 195.996094 244.554688 199.015625 C 244.070312 200.984375 242.839844 203.691406 240.585938 204.160156 C 239.144531 204.460938 238.28125 203.378906 237.738281 202.183594 C 235.925781 198.199219 236.652344 193.476562 234.5625 189.597656 C 231.296875 183.523438 224.984375 180.039062 218.402344 178.652344 C 212.007812 177.300781 205.792969 178.261719 199.351562 178.398438 C 196.164062 178.46875 192.742188 178.46875 189.683594 177.445312 C 187.414062 176.6875 186.207031 175.613281 185.140625 173.507812 C 184.023438 171.296875 183.148438 168.75 181.492188 166.859375 C 180.722656 165.976562 179.691406 165.128906 178.4375 165.28125 C 176.945312 165.457031 175.894531 166.375 175.492188 167.816406 C 174.792969 170.324219 175 173.433594 175.875 175.882812 C 177.273438 179.800781 179.902344 182.675781 183.484375 184.761719 C 187.246094 186.953125 191.175781 188.195312 195.5625 187.917969 C 197.625 187.789062 199.550781 187.257812 201.585938 186.933594 C 202.820312 186.742188 204.390625 186.472656 205.578125 187.023438 C 207.074219 187.71875 209.296875 189.066406 208.457031 191.066406 C 207.65625 192.992188 205.730469 194.285156 204.207031 195.605469 C 202.308594 197.238281 200.640625 199.148438 201.191406 201.890625 C 201.648438 204.167969 203.839844 204.785156 205.917969 204.542969 C 208.269531 204.269531 210.695312 203.253906 212.46875 201.664062 C 214.394531 199.9375 215.160156 197.425781 216.175781 195.117188 C 216.835938 193.617188 217.785156 190.984375 219.628906 190.546875 C 221.90625 190.007812 223.792969 192.597656 224.910156 194.1875 C 226.53125 196.5 227.492188 199.253906 227.007812 202.09375 C 226.566406 204.679688 225.273438 206.9375 224.328125 209.351562 C 223.167969 212.320312 222.929688 215.253906 224.460938 218.160156 C 225.222656 219.601562 226.460938 221.339844 228.332031 220.65625 C 229.59375 220.195312 230.628906 219.257812 231.582031 218.335938 C 233.492188 216.488281 235.144531 214.636719 237.851562 214.03125 C 239.730469 213.609375 241.691406 213.5625 243.546875 213.039062 C 245.707031 212.429688 247.511719 211.234375 248.980469 209.539062 C 251.847656 206.226562 252.761719 202.226562 252.667969 198.121094 C 251.128906 197.492188 249.457031 197.335938 247.707031 197.847656 C 249.058594 189.683594 246.105469 184.078125 238.628906 180.488281 C 239.335938 178.53125 240.328125 175.703125 238.1875 171.929688 C 236.683594 169.285156 233.222656 165.832031 227.992188 166.570312 C 229.960938 160.011719 220.679688 149.785156 212.90625 155.742188 C 212.019531 152.183594 209.996094 149.421875 208.003906 147.445312 "/><path style=" stroke:none;fill-rule:nonzero;fill:#c93ca6;fill-opacity:1;" d="M 268.539062 238.996094 C 266.398438 243.292969 262.160156 246.867188 257.207031 244.71875 C 254.367188 243.484375 251.617188 241.125 248.386719 241.113281 C 245.082031 241.101562 239.839844 244.0625 241.394531 248.125 C 242.667969 251.457031 246.890625 251.519531 249.707031 252.785156 C 252.074219 253.851562 254.742188 255.152344 256.15625 257.453125 C 257.644531 259.875 257.6875 262.996094 256.839844 265.660156 C 255.929688 268.519531 254.019531 270.636719 251.472656 272.171875 C 245.925781 275.507812 239.09375 277.394531 232.742188 275.273438 C 227.878906 273.652344 224.785156 270.226562 222.828125 265.640625 C 220.972656 261.289062 219.429688 256.4375 219.351562 251.667969 C 219.296875 248.199219 220.304688 244.347656 224.375 244.140625 C 224.503906 244.132812 224.636719 244.234375 224.664062 244.359375 C 226.519531 253.242188 230.183594 262.554688 237.886719 267.957031 C 240.785156 269.988281 245.003906 272.609375 248.746094 271.789062 C 250.683594 271.367188 252.535156 269.625 252.390625 267.46875 C 252.253906 265.476562 250.460938 264.179688 248.898438 263.21875 C 243.722656 260.042969 238 257.019531 235.007812 251.453125 C 233.507812 248.660156 232.75 245.511719 232.796875 242.335938 C 232.832031 240.054688 233.371094 237.59375 235.445312 236.300781 C 237.441406 235.054688 239.882812 234.871094 242.167969 234.632812 C 245.367188 234.300781 248.371094 233.695312 251.367188 232.472656 C 254.433594 231.222656 257.308594 229.503906 259.609375 227.097656 C 261.171875 225.46875 262.472656 223.644531 263.632812 221.726562 C 262.074219 219.90625 260.753906 218.964844 260.753906 218.964844 C 261.890625 217.539062 262.191406 215.152344 261.84375 212.480469 C 256.671875 213.019531 252.28125 219.117188 248.300781 221.742188 C 245.007812 223.917969 241.667969 226.074219 237.699219 226.757812 C 234.089844 227.375 230.40625 226.933594 227.144531 225.214844 C 220.730469 221.832031 216.542969 215.6875 211.121094 211.066406 C 209.796875 209.933594 208.324219 208.667969 206.707031 207.960938 C 205.667969 207.503906 204.542969 207.3125 203.503906 206.863281 C 201.171875 205.855469 200.574219 203.21875 200.316406 200.902344 C 200.144531 199.371094 200.148438 197.707031 199.546875 196.269531 C 198.808594 194.519531 197.261719 193.453125 195.445312 193.015625 C 193.167969 192.46875 191.15625 193.160156 189.871094 195.152344 C 187.523438 198.78125 187.390625 203.292969 185.625 207.164062 C 183.5625 211.691406 177.03125 212.921875 172.976562 210.410156 C 170.621094 208.953125 168.816406 206.589844 168.207031 203.863281 C 167.878906 202.386719 167.78125 200.847656 168.066406 199.351562 C 168.320312 197.996094 168.839844 197.117188 169.535156 195.949219 C 171.800781 192.132812 167.835938 189.007812 166.503906 185.632812 C 165.292969 182.5625 166.054688 179.648438 167.238281 176.675781 C 168.851562 172.617188 171.4375 169.039062 172.953125 164.941406 C 173.792969 162.679688 174.09375 160.253906 174.691406 157.921875 C 174.992188 156.761719 175.417969 154.03125 177.097656 154.019531 C 179.171875 154.007812 180.550781 156.578125 182.472656 157.15625 C 184.292969 157.703125 186.816406 156.957031 187.859375 155.269531 C 188.570312 154.117188 188.582031 152.824219 188.605469 151.507812 C 188.644531 148.984375 189.292969 146.433594 191.265625 144.699219 C 193.296875 142.910156 195.882812 142.207031 198.5625 142.101562 C 189.164062 139.425781 183.238281 142.109375 183.238281 142.109375 C 179.179688 139.300781 174.921875 139.15625 171.128906 140.234375 C 166.769531 136.910156 161.449219 136.320312 161.449219 136.320312 C 152.859375 135.042969 145.292969 138.695312 145.292969 138.695312 C 139.960938 135.679688 123.265625 139.21875 120.277344 146.742188 C 100.386719 141.214844 91.703125 157.675781 91.703125 157.675781 C 87.933594 158.789062 86.128906 159.132812 80.976562 161.664062 C 80.976562 161.664062 74.296875 164.34375 70 177.464844 C 65.066406 176.96875 53.789062 188.457031 58.773438 199.023438 C 46.441406 204.207031 46.53125 226.113281 46.53125 226.113281 C 45.003906 248.058594 62.183594 266.359375 79.746094 274.648438 C 96.199219 282.414062 116.355469 280.28125 130.53125 269.011719 C 134.640625 294.226562 165.761719 290.789062 169.960938 290.820312 C 176.484375 290.871094 185 285.519531 190.808594 282.628906 C 193 281.539062 195.296875 280.464844 197.597656 279.753906 C 201.625 278.511719 200.195312 278.5 202.730469 278.75 C 202.730469 278.597656 202.828125 278.445312 203.019531 278.433594 C 204.996094 278.34375 206.882812 278.75 208.738281 279.417969 C 210.785156 280.152344 213.054688 281.378906 215.257812 281.5 C 218.796875 281.691406 222.125 279.777344 225.613281 279.875 C 225.738281 279.320312 225.902344 278.769531 226.125 278.222656 C 237.695312 285.289062 250.066406 279.105469 255.183594 274.753906 C 259.90625 270.742188 262.304688 262.609375 259.386719 254.964844 C 264.074219 251.0625 267.675781 245.6875 268.539062 238.996094 "/><path style=" stroke:none;fill-rule:nonzero;fill:#3bbec5;fill-opacity:1;" d="M 225.5 280.464844 C 221.867188 280.40625 218.335938 282.875 214.671875 282.035156 C 211.777344 281.367188 209.070312 279.957031 206.195312 279.332031 C 206.722656 279.679688 206.953125 280.226562 208.15625 281.046875 C 212.074219 283.710938 209.503906 285.984375 211.886719 289.757812 C 213.207031 291.847656 221.714844 295.761719 227.886719 309.597656 C 230.28125 314.960938 234.089844 307.902344 233.789062 303.800781 C 233.488281 299.667969 223.984375 289.410156 225.5 280.464844 "/><path style=" stroke:none;fill-rule:nonzero;fill:#7a6bbc;fill-opacity:1;" d="M 223.046875 280.136719 C 224.15625 279.777344 225.199219 279.105469 224.902344 277.785156 C 224.605469 276.457031 223.765625 275.257812 223.039062 274.128906 C 220.394531 270.027344 217.902344 265.824219 216.289062 261.1875 C 214.480469 255.972656 214.0625 250.496094 215.503906 245.132812 C 216.851562 240.113281 221.660156 238.683594 220.332031 229.105469 C 219.570312 223.609375 214.960938 220.09375 210.3125 217.402344 C 205.253906 214.472656 199.402344 213.023438 193.589844 212.726562 C 187.804688 212.429688 182.285156 213.230469 177.015625 215.699219 C 172.191406 217.964844 167.714844 220.886719 162.78125 222.925781 L 162.730469 222.9375 C 161.085938 225.453125 159.078125 227.707031 156.800781 229.675781 C 153.042969 232.914062 148.773438 235.445312 144.753906 238.332031 C 140.230469 241.582031 136.203125 245.414062 133.226562 250.160156 C 129.269531 256.46875 127.613281 263.660156 128.125 270.792969 C 128.945312 270.222656 129.75 269.632812 130.53125 269.011719 C 134.640625 294.226562 165.765625 290.789062 169.960938 290.820312 C 176.484375 290.871094 185 285.519531 190.8125 282.628906 C 193 281.539062 195.296875 280.464844 197.597656 279.753906 C 202.316406 278.296875 199.539062 278.53125 204.429688 278.894531 C 206.839844 279.074219 208.140625 278.824219 210.132812 280.179688 L 210.144531 280.1875 C 211.4375 280.417969 212.730469 280.628906 214.046875 280.730469 C 216.925781 280.960938 220.261719 281.046875 223.046875 280.136719 "/><path style=" stroke:none;fill-rule:nonzero;fill:#544ca5;fill-opacity:1;" d="M 136.296875 246.003906 C 133.820312 252.554688 133.988281 260.421875 136.472656 266.710938 C 138.101562 270.832031 140.886719 274.597656 144.945312 276.585938 C 148.675781 278.410156 152.925781 279.609375 157.0625 279.980469 C 159.894531 280.234375 163.207031 280.261719 165.714844 278.707031 C 167.195312 277.796875 170.101562 274.835938 168.148438 273.070312 C 166.613281 271.675781 164.054688 271.4375 162.085938 271.25 C 160.183594 271.074219 158.277344 271.074219 156.375 270.933594 C 150.703125 270.523438 146.296875 264.476562 144.792969 259.472656 C 144.003906 256.832031 143.625 253.761719 144.746094 251.148438 C 145.769531 248.757812 147.667969 246.972656 149.835938 245.59375 C 154.761719 242.460938 161.363281 240.710938 164.074219 235.058594 C 165.25 232.597656 165.902344 229.699219 167.644531 227.542969 C 169.875 224.785156 173.453125 222.769531 176.65625 221.371094 C 179.660156 220.054688 182.882812 219.085938 186.140625 218.652344 C 188.550781 218.335938 190.996094 218.300781 193.421875 218.171875 C 196.28125 218.023438 199.191406 217.871094 201.996094 217.253906 C 203.414062 216.9375 205.21875 216.5 206.425781 215.496094 C 202.363281 213.828125 197.96875 212.949219 193.589844 212.726562 C 187.804688 212.429688 182.285156 213.230469 177.015625 215.703125 C 172.191406 217.964844 167.714844 220.886719 162.78125 222.925781 L 162.730469 222.9375 C 161.085938 225.453125 159.078125 227.707031 156.800781 229.675781 C 153.042969 232.914062 148.773438 235.445312 144.753906 238.332031 C 141.632812 240.570312 138.761719 243.101562 136.296875 246.003906 "/><path style=" stroke:none;fill-rule:nonzero;fill:#544ca5;fill-opacity:1;" d="M 209.113281 229.125 C 207.800781 226.792969 205.042969 225.507812 202.371094 225.367188 C 202.457031 225.527344 202.421875 225.742188 202.199219 225.777344 C 191.828125 227.554688 181.433594 230.4375 172.144531 235.480469 C 167.472656 238.019531 163.03125 241.070312 159.28125 244.859375 C 155.980469 248.191406 152.410156 252.40625 150.953125 256.964844 C 150.4375 258.566406 149.910156 260.9375 151.425781 262.203125 C 152.738281 263.296875 154.425781 262.898438 155.800781 262.140625 C 158.425781 260.691406 160.269531 258.457031 162.375 256.402344 C 168.234375 250.691406 174.660156 245.398438 181.96875 241.640625 C 185.230469 239.964844 188.746094 238.238281 192.390625 237.632812 C 195.910156 237.042969 199.574219 237.105469 203.039062 236.191406 C 205.796875 235.460938 211.1875 232.800781 209.113281 229.125 "/><path style=" stroke:none;fill-rule:nonzero;fill:#544ca5;fill-opacity:1;" d="M 187.230469 242.292969 C 178.402344 246.558594 184.667969 258.707031 189.113281 263.851562 C 192.289062 267.527344 196.535156 270.972656 201.449219 271.824219 C 204.023438 272.269531 206.609375 271.925781 208.921875 270.675781 C 210.632812 269.75 213.207031 268.074219 212.988281 265.785156 C 212.796875 263.828125 211.179688 261.847656 209.207031 261.5 C 206.046875 260.9375 202.917969 262.363281 199.75 261.949219 C 196.875 261.574219 194.605469 259.1875 193.449219 256.675781 C 192.285156 254.144531 191.699219 251.648438 191.46875 248.894531 C 191.300781 246.851562 190.730469 239.753906 187.375 241.996094 C 187.402344 242.109375 187.371094 242.226562 187.230469 242.292969 "/><path style=" stroke:none;fill-rule:nonzero;fill:#544ca5;fill-opacity:1;" d="M 224.902344 277.785156 C 224.605469 276.457031 223.765625 275.257812 223.039062 274.128906 C 220.394531 270.027344 217.902344 265.824219 216.289062 261.1875 C 214.480469 255.972656 214.0625 250.496094 215.503906 245.132812 C 216.851562 240.113281 221.660156 238.683594 220.332031 229.105469 C 219.621094 223.960938 215.53125 220.546875 211.199219 217.925781 C 210.425781 219.300781 210.074219 220.878906 210.394531 222.660156 C 210.976562 225.890625 213.152344 228.257812 214.148438 231.292969 C 216.074219 237.171875 211.140625 240.121094 206.714844 242.695312 C 205.066406 243.652344 200.378906 246.316406 202.640625 248.742188 C 203.90625 250.101562 206.015625 251.132812 207.832031 251.4375 C 209.003906 251.632812 210.441406 251.722656 211.351562 252.59375 C 213.445312 254.59375 211.5625 257.265625 212.035156 259.703125 C 212.652344 262.898438 214.8125 265.625 215.273438 268.863281 C 215.609375 271.210938 214.871094 274.46875 212.125 275 C 209.117188 275.582031 206.167969 273.953125 203.148438 274.144531 C 199.738281 274.359375 196.191406 276.265625 192.761719 275.765625 C 190.214844 275.394531 189.316406 273.011719 188.984375 270.753906 C 188.777344 269.367188 188.699219 267.898438 188.222656 266.570312 C 187.683594 265.066406 186.535156 263.820312 185.335938 262.796875 C 182.449219 260.335938 178.519531 258.335938 174.644531 258.347656 C 171.398438 258.355469 167.109375 259.730469 165.519531 262.839844 C 163.40625 266.964844 168.691406 268.921875 171.730469 269.632812 C 176.347656 270.714844 183.453125 274.210938 181.292969 280.175781 C 179.097656 286.234375 171.738281 288.144531 166.007812 288.609375 C 161.828125 288.949219 157.601562 288.722656 153.472656 287.976562 C 149.757812 287.300781 145.980469 286.375 142.707031 284.414062 C 137.644531 281.382812 134.292969 276.621094 131.125 271.785156 C 136.996094 293.960938 165.925781 290.789062 169.960938 290.820312 C 176.484375 290.871094 185 285.519531 190.8125 282.628906 C 193 281.539062 195.296875 280.464844 197.597656 279.753906 C 202.316406 278.296875 199.539062 278.53125 204.429688 278.894531 C 206.839844 279.074219 208.140625 278.824219 210.132812 280.179688 L 210.144531 280.1875 C 211.4375 280.417969 212.730469 280.628906 214.046875 280.730469 C 216.925781 280.960938 220.261719 281.046875 223.046875 280.136719 C 224.15625 279.777344 225.199219 279.105469 224.902344 277.785156 "/><path style=" stroke:none;fill-rule:nonzero;fill:#3bbec5;fill-opacity:1;" d="M 135.769531 253.9375 C 138.773438 249.648438 142.914062 246.515625 147.285156 243.714844 C 151.679688 240.902344 156.398438 238.277344 159.75 234.179688 C 163.472656 229.632812 165.359375 223.898438 165.152344 218.039062 C 164.957031 212.550781 163.363281 207.273438 161.949219 202.007812 C 160.605469 197.015625 159.292969 191.816406 159.699219 186.605469 C 160.152344 180.8125 162.515625 175.507812 165.050781 170.359375 C 167.742188 164.898438 171.210938 159.160156 170.9375 152.871094 C 170.738281 148.296875 169.382812 143.835938 169.761719 139.292969 C 165.730469 136.796875 161.449219 136.320312 161.449219 136.320312 C 152.859375 135.042969 145.292969 138.695312 145.292969 138.695312 C 139.960938 135.683594 123.265625 139.214844 120.277344 146.742188 C 100.386719 141.214844 91.703125 157.675781 91.703125 157.675781 C 87.933594 158.785156 86.128906 159.132812 80.976562 161.664062 C 80.976562 161.664062 74.296875 164.34375 70 177.464844 C 65.066406 176.96875 53.789062 188.460938 58.773438 199.023438 C 46.441406 204.207031 46.53125 226.113281 46.53125 226.113281 C 45.003906 248.058594 62.183594 266.359375 79.746094 274.648438 C 95.644531 282.152344 115.285156 280.152344 129.089844 270.105469 C 130.503906 264.410156 132.394531 258.75 135.769531 253.9375 "/><path style=" stroke:none;fill-rule:nonzero;fill:#0d8bb2;fill-opacity:1;" d="M 126.285156 266.59375 C 124.070312 268.300781 121.941406 269.945312 119.445312 271.238281 C 115.808594 273.117188 111.886719 274.476562 107.855469 275.203125 C 104.425781 275.820312 100.734375 276.285156 97.269531 275.6875 C 91.488281 274.691406 86.554688 271.132812 82.996094 266.566406 C 79.5 262.078125 77.199219 256.257812 77.328125 250.515625 C 77.390625 247.75 77.941406 244.972656 79.179688 242.484375 C 80.257812 240.304688 81.691406 238.808594 83.640625 237.375 C 85.960938 235.671875 88.429688 234.175781 90.769531 232.496094 C 92.738281 231.082031 95.464844 229.253906 96.277344 226.820312 C 97.382812 223.488281 93.714844 221.675781 90.9375 221.425781 C 87.675781 221.132812 84.320312 221.804688 81.382812 223.257812 C 74.546875 226.628906 68.050781 234.03125 67.773438 241.972656 C 67.644531 245.597656 68.371094 249.144531 68.769531 252.730469 C 69.09375 255.621094 69.28125 258.664062 67.9375 261.339844 C 67.859375 261.488281 67.660156 261.519531 67.523438 261.445312 C 62.789062 258.820312 59.386719 254.34375 57.136719 249.496094 C 54.585938 244.011719 53.167969 238.003906 52.703125 231.980469 C 52.277344 226.441406 52.480469 220.609375 54.183594 215.277344 C 55.886719 209.933594 58.414062 203.6875 63.101562 200.277344 C 65.511719 198.527344 68.53125 197.542969 71.496094 198.257812 C 74.664062 199.019531 77.972656 201.386719 81.332031 200.785156 C 80.636719 198.15625 79.3125 195.691406 76.992188 194.152344 C 74.820312 192.71875 72.269531 192.085938 69.777344 191.449219 C 67.179688 190.785156 62.492188 189.855469 65.074219 186.335938 C 66.5625 184.304688 68.929688 182.484375 71.324219 181.683594 C 73.902344 180.824219 76.828125 180.746094 79.226562 179.382812 C 82.609375 177.460938 88.742188 168.964844 82.433594 166.816406 C 82.230469 166.746094 82.125 166.476562 82.300781 166.3125 C 84.394531 164.355469 86.878906 164.117188 89.609375 163.863281 C 91.308594 163.703125 93.058594 163.457031 94.5625 162.59375 C 95.710938 161.929688 96.726562 161.101562 97.742188 160.25 C 100.863281 157.621094 105.347656 155.003906 109.382812 157.546875 C 112.433594 159.472656 112.710938 163.476562 112.722656 166.746094 C 112.734375 170.667969 112.261719 174.542969 113.550781 178.316406 C 114.421875 180.863281 115.488281 183.726562 117.363281 185.71875 C 118.183594 186.589844 119.371094 187.523438 120.644531 187.027344 C 121.894531 186.542969 122.300781 185.269531 122.46875 184.035156 C 122.859375 181.160156 122.417969 178.210938 122.105469 175.347656 C 121.816406 172.671875 121.601562 169.976562 121.382812 167.296875 C 120.890625 161.246094 120.582031 154.070312 124.28125 148.855469 C 126.183594 146.175781 130.066406 142.519531 133.652344 144.417969 C 136.363281 145.859375 137.851562 148.972656 139.5 151.414062 C 141.191406 153.914062 143.457031 156.386719 146.316406 153.753906 C 148.253906 151.96875 149.511719 149.648438 150.796875 147.386719 C 151.761719 145.6875 152.890625 144.34375 154.808594 143.722656 C 157.734375 142.777344 160.871094 142.820312 163.902344 142.496094 C 166.324219 142.238281 168.183594 141.425781 169.71875 139.964844 C 169.730469 139.742188 169.742188 139.519531 169.761719 139.292969 C 165.730469 136.796875 161.449219 136.320312 161.449219 136.320312 C 152.859375 135.042969 145.292969 138.695312 145.292969 138.695312 C 139.960938 135.683594 123.265625 139.214844 120.277344 146.742188 C 100.386719 141.214844 91.703125 157.675781 91.703125 157.675781 C 87.933594 158.785156 86.128906 159.132812 80.976562 161.664062 C 80.976562 161.664062 74.296875 164.34375 70 177.464844 C 65.066406 176.96875 53.789062 188.460938 58.773438 199.023438 C 46.441406 204.207031 46.53125 226.113281 46.53125 226.113281 C 45.003906 248.058594 62.183594 266.359375 79.746094 274.648438 C 95.644531 282.152344 115.285156 280.152344 129.089844 270.105469 C 129.601562 268.042969 130.179688 265.984375 130.863281 263.96875 C 129.195312 264.402344 127.613281 265.566406 126.285156 266.59375 "/><path style=" stroke:none;fill-rule:nonzero;fill:#0d8bb2;fill-opacity:1;" d="M 165.050781 170.359375 C 167.742188 164.898438 171.210938 159.160156 170.9375 152.871094 C 170.820312 150.117188 170.285156 147.402344 169.957031 144.6875 C 166.457031 153.210938 160.367188 160.449219 156.113281 168.648438 C 153.566406 173.546875 151.726562 178.921875 152.074219 184.515625 C 152.253906 187.394531 152.894531 190.167969 153.992188 192.828125 C 154.957031 195.164062 156.003906 197.542969 156.503906 200.035156 C 156.828125 201.660156 157.253906 204.574219 155.339844 205.453125 C 153.484375 206.304688 150.652344 205.335938 148.832031 204.859375 C 146.285156 204.191406 143.515625 202.992188 140.859375 202.929688 C 138.960938 202.886719 137.109375 203.242188 135.285156 203.742188 C 130.855469 204.957031 125.878906 206.785156 122.433594 209.9375 C 121.382812 210.898438 119.890625 212.542969 120.777344 214.074219 C 121.78125 215.808594 124.382812 216.796875 126.277344 217.007812 C 130.925781 217.539062 135.746094 216.535156 140.378906 216.230469 C 144.574219 215.957031 150.082031 215.488281 153.746094 218.027344 C 155.222656 219.046875 156.265625 220.542969 156.550781 222.339844 C 156.816406 224.007812 157.027344 226.21875 155.386719 227.296875 C 153.855469 228.300781 151.804688 228.082031 150.097656 227.75 C 147.851562 227.3125 145.691406 226.554688 143.53125 225.816406 C 139.730469 224.523438 135.421875 224.433594 131.453125 224.828125 C 126.867188 225.289062 121.765625 226.226562 117.605469 228.304688 C 114.121094 230.042969 111.09375 232.503906 107.886719 234.675781 C 105.703125 236.15625 102.625 238.507812 99.8125 238.289062 C 97.660156 238.121094 95.648438 237.011719 93.488281 236.964844 C 90.378906 236.894531 89.304688 240.476562 89.609375 243.101562 C 89.949219 246.085938 91.515625 249.070312 93.492188 251.296875 C 95.207031 253.234375 98.199219 255.707031 100.949219 254.246094 C 102.949219 253.183594 103.160156 251.457031 103.667969 249.492188 C 104.015625 248.148438 104.722656 247.105469 105.683594 246.109375 C 108.179688 243.515625 111.613281 241.722656 114.871094 240.289062 C 121.820312 237.230469 129.167969 236.101562 136.636719 237.632812 C 138.910156 238.097656 141.808594 238.417969 143.773438 239.757812 C 145.59375 241.003906 144.746094 243.101562 143.582031 244.464844 C 142.828125 245.351562 142.34375 246.414062 141.945312 247.511719 C 143.640625 246.144531 145.441406 244.898438 147.285156 243.714844 C 151.679688 240.902344 156.398438 238.277344 159.75 234.179688 C 163.472656 229.632812 165.359375 223.898438 165.152344 218.039062 C 164.960938 212.550781 163.367188 207.273438 161.949219 202.003906 C 160.605469 197.015625 159.292969 191.816406 159.703125 186.601562 C 160.15625 180.808594 162.515625 175.503906 165.050781 170.359375 "/><path style=" stroke:none;fill-rule:nonzero;fill:#0c1e2c;fill-opacity:1;" d="M 216.558594 225.488281 C 220.273438 229.132812 219.558594 234.550781 217.695312 238.90625 C 215.648438 243.691406 210.015625 245.589844 205.304688 246.382812 C 203.398438 246.703125 204.207031 249.601562 206.105469 249.28125 C 212.101562 248.273438 218.105469 245.539062 220.621094 239.65625 C 222.90625 234.3125 223.105469 227.699219 218.683594 223.359375 C 217.296875 222 215.171875 224.128906 216.558594 225.488281 "/><path style=" stroke:none;fill-rule:nonzero;fill:#0c1e2c;fill-opacity:1;" d="M 215.066406 259.546875 C 216.011719 267.410156 218.898438 274.125 225.0625 279.289062 C 226.539062 280.523438 228.675781 278.40625 227.1875 277.160156 C 221.671875 272.539062 218.925781 266.621094 218.074219 259.546875 C 217.847656 257.644531 214.835938 257.625 215.066406 259.546875 "/><path style=" stroke:none;fill-rule:nonzero;fill:#0c1e2c;fill-opacity:1;" d="M 166.339844 222.933594 C 169.136719 220.011719 173.472656 219.398438 177.167969 218.210938 C 181.542969 216.8125 186.3125 216.191406 190.570312 214.546875 C 196.664062 212.191406 197.386719 204.945312 197.421875 199.3125 C 197.433594 197.371094 194.425781 197.371094 194.414062 199.3125 C 194.394531 202.476562 194.277344 205.746094 192.847656 208.632812 C 191.054688 212.246094 186.742188 212.460938 183.273438 213.28125 C 179.542969 214.164062 175.929688 215.457031 172.253906 216.542969 C 169.296875 217.414062 166.386719 218.539062 164.214844 220.808594 C 162.875 222.207031 165 224.335938 166.339844 222.933594 "/><path style=" stroke:none;fill-rule:nonzero;fill:#0c1e2c;fill-opacity:1;" d="M 190.785156 214.445312 C 195.410156 213.578125 199.9375 214.242188 204.453125 215.355469 C 206.335938 215.820312 207.136719 212.917969 205.253906 212.457031 C 200.183594 211.203125 195.167969 210.574219 189.984375 211.542969 C 188.082031 211.898438 188.890625 214.800781 190.785156 214.445312 "/><path style=" stroke:none;fill-rule:nonzero;fill:#0c1e2c;fill-opacity:1;" d="M 164.253906 220.617188 C 162.691406 224.65625 160.980469 228.597656 158.5 232.164062 C 155.988281 235.769531 152.207031 238.25 148.578125 240.59375 C 142.433594 244.550781 137.359375 249.039062 136.710938 256.722656 C 136.1875 262.910156 139.527344 269.015625 143.964844 273.078125 C 149.984375 278.59375 158.105469 279.085938 165.679688 276.949219 C 167.542969 276.421875 166.75 273.519531 164.878906 274.046875 C 157.253906 276.199219 150 275.21875 144.449219 269.332031 C 140.070312 264.6875 138.304688 257.613281 141.039062 251.71875 C 143.90625 245.542969 151.453125 242.804688 156.449219 238.679688 C 161.859375 234.214844 164.679688 227.804688 167.152344 221.417969 C 167.855469 219.605469 164.945312 218.832031 164.253906 220.617188 "/><path style=" stroke:none;fill-rule:nonzero;fill:#0c1e2c;fill-opacity:1;" d="M 156.363281 259.234375 C 162.003906 251.335938 170.226562 245.28125 178.566406 240.515625 C 186.753906 235.835938 196.519531 231.867188 206.128906 232.738281 C 208.0625 232.914062 208.046875 229.902344 206.128906 229.730469 C 195.949219 228.808594 185.753906 233.0625 177.046875 237.917969 C 168.222656 242.839844 159.679688 249.4375 153.769531 257.714844 C 152.636719 259.296875 155.246094 260.796875 156.363281 259.234375 "/><path style=" stroke:none;fill-rule:nonzero;fill:#0c1e2c;fill-opacity:1;" d="M 168.164062 265.730469 C 179.21875 260.222656 190.355469 278.328125 179.839844 285.265625 C 178.230469 286.328125 179.734375 288.933594 181.355469 287.863281 C 195.125 278.777344 181.171875 255.898438 166.648438 263.132812 C 164.910156 264 166.433594 266.59375 168.164062 265.730469 "/><path style=" stroke:none;fill-rule:nonzero;fill:#0c1e2c;fill-opacity:1;" d="M 185.957031 246.957031 C 188.179688 253.53125 188.183594 261.011719 193.152344 266.347656 C 197 270.476562 205.929688 270.484375 210.292969 267.433594 C 211.871094 266.332031 210.371094 263.722656 208.773438 264.835938 C 204.511719 267.8125 197.015625 266.921875 193.964844 262.621094 C 190.648438 257.945312 190.644531 251.453125 188.855469 246.15625 C 188.238281 244.328125 185.332031 245.113281 185.957031 246.957031 "/><path style=" stroke:none;fill-rule:nonzero;fill:#0c1e2c;fill-opacity:1;" d="M 191.257812 284.628906 C 193.203125 282.035156 197.480469 281.242188 200.457031 280.539062 C 204.710938 279.527344 208.257812 281.726562 212.109375 282.984375 C 216.5 284.414062 223.941406 282.535156 227.1875 279.289062 C 228.5625 277.914062 226.433594 275.789062 225.0625 277.160156 C 223.039062 279.183594 219.46875 279.78125 216.753906 280.277344 C 212.734375 281.007812 209.128906 278.179688 205.257812 277.523438 C 200.019531 276.632812 191.976562 278.6875 188.660156 283.109375 C 187.496094 284.664062 190.109375 286.160156 191.257812 284.628906 "/><path style=" stroke:none;fill-rule:nonzero;fill:#0c1e2c;fill-opacity:1;" d="M 208.734375 284.25 C 208.660156 286.539062 209.015625 288.589844 210.269531 290.53125 C 211.597656 292.585938 214.199219 293.609375 216.0625 295.089844 C 220.226562 298.394531 223.429688 303.519531 225.3125 308.433594 C 226.101562 310.484375 228.320312 314.589844 231.171875 312.566406 C 235.179688 309.714844 235.265625 304.871094 233.394531 300.738281 C 232.59375 298.972656 230.003906 300.503906 230.796875 302.257812 C 231.601562 304.035156 231.882812 305.730469 231.359375 307.632812 C 231.132812 308.457031 229.980469 310.664062 229.074219 309.375 C 228.710938 308.851562 228.453125 308.214844 228.214844 307.632812 C 227.171875 305.085938 226.058594 302.785156 224.535156 300.457031 C 222.730469 297.691406 220.707031 295.113281 218.191406 292.960938 C 216.957031 291.90625 215.585938 291.019531 214.207031 290.171875 C 212.058594 288.851562 211.667969 286.566406 211.746094 284.25 C 211.808594 282.308594 208.800781 282.316406 208.734375 284.25 "/><path style=" stroke:none;fill-rule:nonzero;fill:#0c1e2c;fill-opacity:1;" d="M 176.59375 169.917969 C 177.488281 176.296875 180.894531 181.167969 186.863281 183.675781 C 192.71875 186.132812 199.597656 185.296875 205.609375 183.992188 C 213.21875 182.347656 221.46875 184.949219 226.863281 190.488281 C 233.25 197.042969 234.003906 208.46875 227.621094 215.273438 C 226.292969 216.6875 228.417969 218.820312 229.746094 217.402344 C 235.269531 211.511719 236.507812 202.484375 233.367188 195.121094 C 230.425781 188.214844 224.417969 183.519531 217.28125 181.476562 C 209.734375 179.320312 202.71875 182.285156 195.167969 182.191406 C 186.808594 182.085938 180.683594 177.582031 179.492188 169.117188 C 179.226562 167.207031 176.328125 168.023438 176.59375 169.917969 "/><path style=" stroke:none;fill-rule:nonzero;fill:#0c1e2c;fill-opacity:1;" d="M 232.726562 208.886719 C 235.300781 212.011719 240.765625 210.714844 243.914062 209.375 C 248.816406 207.289062 249.328125 201.820312 249.335938 197.183594 C 249.339844 195.242188 246.332031 195.242188 246.328125 197.183594 C 246.324219 200.734375 246.316406 204.511719 242.902344 206.527344 C 241.023438 207.636719 236.484375 208.738281 234.851562 206.761719 C 233.617188 205.261719 231.5 207.40625 232.726562 208.886719 "/><path style=" stroke:none;fill-rule:nonzero;fill:#0c1e2c;fill-opacity:1;" d="M 184.09375 140.554688 C 179.863281 143.496094 178.9375 149.726562 181.429688 154.105469 C 182.386719 155.789062 184.984375 154.273438 184.023438 152.585938 C 182.394531 149.726562 182.746094 145.144531 185.613281 143.152344 C 187.191406 142.054688 185.691406 139.441406 184.09375 140.554688 "/><path style=" stroke:none;fill-rule:nonzero;fill:#0c1e2c;fill-opacity:1;" d="M 209.085938 183.046875 C 212.027344 187.859375 210.195312 198.109375 204.027344 199.5625 C 202.140625 200.011719 202.941406 202.910156 204.828125 202.464844 C 212.914062 200.554688 215.617188 187.972656 211.683594 181.527344 C 210.675781 179.875 208.070312 181.386719 209.085938 183.046875 "/><path style=" stroke:none;fill-rule:nonzero;fill:#0c1e2c;fill-opacity:1;" d="M 211.589844 220.027344 C 218.21875 228.070312 228.261719 234.980469 239.152344 233.894531 C 247.519531 233.058594 258.445312 227.742188 262.054688 219.722656 C 262.84375 217.96875 260.253906 216.4375 259.457031 218.203125 C 256.210938 225.421875 246.820312 229.613281 239.441406 230.847656 C 229.398438 232.523438 219.703125 225.164062 213.71875 217.898438 C 212.484375 216.402344 210.367188 218.542969 211.589844 220.027344 "/><path style=" stroke:none;fill-rule:nonzero;fill:#0c1e2c;fill-opacity:1;" d="M 189.625 163.15625 C 194.484375 166.890625 200.058594 168.273438 205.953125 166.226562 C 210.996094 164.476562 213.804688 159.839844 213.589844 154.621094 C 213.511719 152.691406 210.503906 152.683594 210.582031 154.621094 C 210.765625 159.015625 208.527344 162.15625 204.394531 163.589844 C 199.554688 165.269531 195 163.523438 191.144531 160.558594 C 189.605469 159.378906 188.109375 161.992188 189.625 163.15625 "/><path style=" stroke:none;fill-rule:nonzero;fill:#0c1e2c;fill-opacity:1;" d="M 205.253906 172.671875 C 212.15625 170.316406 219.667969 172.902344 225.671875 176.464844 C 231.496094 179.917969 237.609375 185.808594 238.242188 192.929688 C 238.414062 194.84375 241.421875 194.863281 241.25 192.929688 C 240.527344 184.804688 234.386719 178.527344 227.859375 174.285156 C 221.222656 169.964844 212.230469 167.117188 204.453125 169.769531 C 202.628906 170.394531 203.410156 173.300781 205.253906 172.671875 "/><path style=" stroke:none;fill-rule:nonzero;fill:#0c1e2c;fill-opacity:1;" d="M 228.945312 230.898438 C 221.214844 245.601562 233.347656 264.773438 247.433594 270.335938 C 249.238281 271.050781 250.015625 268.140625 248.234375 267.433594 C 236.003906 262.605469 224.796875 245.246094 231.542969 232.417969 C 232.445312 230.703125 229.851562 229.183594 228.945312 230.898438 "/><path style=" stroke:none;fill-rule:nonzero;fill:#0c1e2c;fill-opacity:1;" d="M 245.394531 248.433594 C 249.917969 247.242188 255.765625 252.171875 257.882812 255.6875 C 258.878906 257.347656 261.480469 255.835938 260.480469 254.167969 C 257.617188 249.410156 250.523438 243.976562 244.597656 245.53125 C 242.722656 246.023438 243.519531 248.925781 245.394531 248.433594 "/><path style=" stroke:none;fill-rule:nonzero;fill:#0c1e2c;fill-opacity:1;" d="M 224.730469 279.351562 C 237.238281 286.046875 252.367188 283.621094 259.554688 270.726562 C 260.5 269.027344 257.90625 267.511719 256.960938 269.207031 C 250.582031 280.644531 237.359375 282.699219 226.253906 276.753906 C 224.542969 275.839844 223.023438 278.433594 224.730469 279.351562 "/><path style=" stroke:none;fill-rule:nonzero;fill:#0d8bb2;fill-opacity:1;" d="M 143.867188 181.871094 C 137.648438 180.226562 129.503906 181.898438 122.921875 182.671875 C 116.042969 183.476562 109.132812 184.648438 102.539062 186.683594 C 98.804688 187.835938 86.015625 192.808594 89.308594 199.136719 C 91.785156 203.898438 102.644531 197.511719 106.179688 196.410156 C 112.207031 194.535156 118.113281 192.679688 124.617188 192.699219 C 129.757812 192.714844 138.792969 192.667969 141.859375 197.515625 C 144.074219 201.015625 142.371094 211.339844 149.078125 211.0625 C 156.289062 210.757812 152.910156 200.703125 151.972656 197.023438 C 150.367188 190.691406 148.679688 185.027344 148.679688 178.261719 C 148.679688 174.917969 148.433594 171.441406 149.078125 168.234375 C 149.878906 164.261719 151.691406 164.460938 155.105469 162.941406 C 157.246094 161.984375 160.183594 160.148438 161.007812 157.8125 C 161.800781 155.574219 161.347656 151.46875 158.722656 150.5625 C 155.863281 149.574219 152.679688 153.1875 150.371094 154.292969 C 147.703125 155.570312 144.914062 155.730469 142.171875 155.09375 C 139.121094 154.386719 134.222656 151.101562 131.03125 152.269531 C 126.746094 153.832031 128.816406 159.675781 131.832031 161.335938 C 133.523438 162.265625 134.832031 161.820312 136.34375 163.398438 C 137.769531 164.886719 138.070312 167.632812 138.261719 169.425781 C 138.613281 172.765625 139.871094 179.148438 138.132812 182.230469 C 137.441406 182.03125 138.277344 182.003906 138.25 181.871094 L 143.867188 181.871094 "/><path style=" stroke:none;fill-rule:nonzero;fill:#0c1e2c;fill-opacity:1;" d="M 93.71875 222.917969 C 66.050781 223.144531 62.160156 261.84375 81.117188 276.4375 C 82.652344 277.621094 84.148438 275.007812 82.632812 273.839844 C 74.320312 267.4375 71.414062 255.839844 72.585938 245.8125 C 73.914062 234.421875 82.054688 226.023438 93.71875 225.929688 C 95.65625 225.914062 95.660156 222.902344 93.71875 222.917969 "/><path style=" stroke:none;fill-rule:nonzero;fill:#0c1e2c;fill-opacity:1;" d="M 80.808594 228.042969 C 73.523438 220.847656 73.457031 208.382812 82.632812 202.738281 C 83.535156 202.183594 83.53125 201.144531 82.9375 200.375 C 76.957031 192.652344 85.050781 179.488281 93.066406 176.832031 C 94.511719 176.351562 95.75 176.097656 96.734375 174.84375 C 98.09375 173.113281 98.757812 170.824219 100.027344 168.988281 C 103.082031 164.578125 108.164062 162.605469 113.363281 162.511719 C 115.300781 162.472656 115.304688 159.464844 113.363281 159.5 C 107.898438 159.601562 102.96875 161.425781 99.128906 165.378906 C 97.152344 167.417969 95.898438 169.925781 94.703125 172.460938 C 94.121094 173.703125 92.769531 173.761719 91.597656 174.152344 C 90.386719 174.554688 89.257812 175.171875 88.191406 175.863281 C 80.160156 181.058594 74.351562 194.160156 80.8125 202.503906 C 80.914062 201.714844 81.011719 200.929688 81.117188 200.140625 C 70.308594 206.789062 69.996094 221.589844 78.683594 230.167969 C 80.0625 231.535156 82.191406 229.40625 80.808594 228.042969 "/><path style=" stroke:none;fill-rule:nonzero;fill:#0c1e2c;fill-opacity:1;" d="M 118.023438 145.777344 C 111.761719 159.023438 115.125 174.152344 119.535156 187.3125 C 120.148438 189.140625 123.054688 188.355469 122.4375 186.511719 C 118.316406 174.226562 114.738281 159.738281 120.621094 147.296875 C 121.445312 145.550781 118.851562 144.023438 118.023438 145.777344 "/><path style=" stroke:none;fill-rule:nonzero;fill:#0c1e2c;fill-opacity:1;" d="M 98.804688 247.429688 C 102.484375 244.632812 105.960938 241.566406 110.003906 239.292969 C 114.554688 236.730469 119.875 235.234375 124.953125 234.144531 C 130.421875 232.972656 135.875 232.738281 141.449219 232.738281 C 144.539062 232.738281 148.5 232.371094 151.328125 233.808594 C 153.054688 234.6875 154.574219 232.089844 152.847656 231.210938 C 149.777344 229.652344 145.910156 229.761719 142.550781 229.730469 C 137.085938 229.683594 131.726562 229.890625 126.335938 230.824219 C 120.734375 231.792969 115.484375 233.589844 110.265625 235.8125 C 105.410156 237.882812 101.4375 241.675781 97.285156 244.832031 C 95.761719 245.988281 97.257812 248.605469 98.804688 247.429688 "/><path style=" stroke:none;fill-rule:nonzero;fill:#0c1e2c;fill-opacity:1;" d="M 169.304688 140.148438 C 169.078125 144.746094 170.167969 149.265625 169.902344 153.867188 C 169.601562 159.078125 166.335938 163.867188 163.820312 168.253906 C 159.261719 176.210938 156.78125 185.078125 159.148438 194.179688 C 159.636719 196.054688 162.535156 195.257812 162.046875 193.378906 C 159.417969 183.269531 163.609375 174.761719 168.46875 166.191406 C 170.421875 162.746094 172.332031 158.949219 172.785156 154.960938 C 173.351562 149.992188 172.066406 145.117188 172.3125 140.148438 C 172.410156 138.210938 169.402344 138.21875 169.304688 140.148438 "/><path style=" stroke:none;fill-rule:nonzero;fill:#0c1e2c;fill-opacity:1;" d="M 158.679688 198.246094 C 160.644531 196.730469 163.179688 195.371094 165.703125 195.285156 C 167.636719 195.214844 167.644531 192.207031 165.703125 192.273438 C 162.320312 192.394531 159.179688 194.089844 156.554688 196.121094 C 155.023438 197.304688 157.167969 199.417969 158.679688 198.246094 "/><path style=" stroke:none;fill-rule:nonzero;fill:#0c1e2c;fill-opacity:1;" d="M 117.710938 198.015625 C 110.480469 201.859375 107.261719 209.207031 108.933594 217.164062 C 110.4375 224.320312 116.347656 227.53125 123.152344 227.628906 C 125.089844 227.660156 125.089844 224.648438 123.152344 224.621094 C 117.113281 224.535156 113.722656 222.117188 111.835938 216.363281 C 109.738281 209.96875 113.726562 203.539062 119.230469 200.613281 C 120.941406 199.699219 119.421875 197.105469 117.710938 198.015625 "/><path style=" stroke:none;fill-rule:nonzero;fill:#0c1e2c;fill-opacity:1;" d="M 92.339844 241.421875 C 92.945312 245.320312 95.683594 248.4375 98.988281 250.410156 C 100.65625 251.40625 102.167969 248.804688 100.503906 247.8125 C 97.800781 246.199219 95.730469 243.796875 95.238281 240.625 C 94.941406 238.710938 92.042969 239.527344 92.339844 241.421875 "/><path style=" stroke:none;fill-rule:nonzero;fill:#0c1e2c;fill-opacity:1;" d="M 100.082031 272.542969 C 109.75 265.507812 120.925781 261.371094 132.9375 261.253906 C 134.875 261.238281 134.878906 258.226562 132.9375 258.246094 C 120.429688 258.367188 108.644531 262.613281 98.5625 269.945312 C 97.011719 271.074219 98.507812 273.683594 100.082031 272.542969 "/><path style=" stroke:none;fill-rule:nonzero;fill:#0c1e2c;fill-opacity:1;" d="M 59.652344 199.757812 C 64.492188 196.472656 76.683594 195.128906 79.289062 201.980469 C 79.972656 203.777344 82.878906 203 82.1875 201.183594 C 78.839844 192.367188 64.820312 192.617188 58.136719 197.160156 C 56.542969 198.246094 58.042969 200.851562 59.652344 199.757812 "/><path style=" stroke:none;fill-rule:nonzero;fill:#0c1e2c;fill-opacity:1;" d="M 61.984375 211.457031 C 56.890625 227.820312 57.296875 247.53125 70.597656 259.960938 C 72.011719 261.285156 74.144531 259.164062 72.722656 257.835938 C 60.191406 246.121094 60.105469 227.613281 64.882812 212.253906 C 65.460938 210.398438 62.558594 209.609375 61.984375 211.457031 "/><path style=" stroke:none;fill-rule:nonzero;fill:#0c1e2c;fill-opacity:1;" d="M 69.179688 178.242188 C 73.636719 181.78125 81.109375 176.765625 82.757812 172.1875 C 83.414062 170.359375 80.507812 169.578125 79.855469 171.390625 C 79.0625 173.59375 73.695312 178.011719 71.304688 176.117188 C 69.804688 174.921875 67.660156 177.039062 69.179688 178.242188 "/><path style=" stroke:none;fill-rule:nonzero;fill:#0c1e2c;fill-opacity:1;" d="M 96.574219 169.023438 C 93.980469 174.46875 93.910156 179.515625 96.574219 184.886719 C 97.4375 186.625 100.03125 185.101562 99.171875 183.367188 C 97.023438 179.035156 97.070312 174.953125 99.171875 170.539062 C 100.003906 168.796875 97.410156 167.273438 96.574219 169.023438 "/><path style=" stroke:none;fill-rule:nonzero;fill:#0c1e2c;fill-opacity:1;" d="M 145.492188 137.527344 C 142.007812 141.210938 139.511719 147.449219 141.851562 152.402344 C 142.679688 154.15625 145.273438 152.628906 144.449219 150.882812 C 142.726562 147.242188 145.183594 142.230469 147.617188 139.652344 C 148.949219 138.246094 146.828125 136.117188 145.492188 137.527344 "/><path style=" stroke:none;fill-rule:nonzero;fill:#0c1e2c;fill-opacity:1;" d="M 94.476562 198.90625 C 102.0625 193.972656 110.734375 191.257812 119.542969 189.457031 C 123.453125 188.660156 127.632812 188.554688 131.613281 188.4375 C 135.746094 188.316406 139.984375 188.464844 143.957031 189.695312 C 145.816406 190.273438 146.605469 187.367188 144.757812 186.796875 C 136.925781 184.371094 128.101562 185.390625 120.101562 186.316406 C 110.785156 187.394531 100.789062 191.214844 92.960938 196.3125 C 91.339844 197.363281 92.847656 199.96875 94.476562 198.90625 "/><path style=" stroke:none;fill-rule:nonzero;fill:#0c1e2c;fill-opacity:1;" d="M 144.679688 159.328125 C 139.882812 176.546875 143.0625 194.804688 149.359375 211.203125 C 150.050781 212.996094 152.957031 212.21875 152.261719 210.402344 C 146.148438 194.492188 142.921875 176.851562 147.582031 160.128906 C 148.101562 158.257812 145.199219 157.464844 144.679688 159.328125 "/><path style=" stroke:none;fill-rule:nonzero;fill:#0c1e2c;fill-opacity:1;" d="M 131.640625 155.796875 C 134.390625 161.351562 142.308594 161.753906 147.671875 161.078125 C 151.71875 160.570312 158.644531 159.511719 159.121094 154.410156 C 159.304688 152.476562 156.292969 152.496094 156.113281 154.410156 C 155.839844 157.347656 148.753906 157.957031 146.597656 158.199219 C 142.597656 158.648438 136.28125 158.40625 134.234375 154.277344 C 133.375 152.542969 130.78125 154.066406 131.640625 155.796875 "/><path style=" stroke:none;fill-rule:nonzero;fill:#0c1e2c;fill-opacity:1;" d="M 123.125 214.808594 C 130.234375 212.664062 138.414062 212.566406 145.761719 212.722656 C 150.765625 212.828125 165.230469 213.027344 164.203125 221.019531 C 163.953125 222.9375 166.964844 222.914062 167.207031 221.019531 C 168.382812 211.921875 155.671875 210.367188 149.347656 209.882812 C 140.71875 209.226562 130.695312 209.386719 122.324219 211.90625 C 120.472656 212.464844 121.261719 215.371094 123.125 214.808594 "/><g transform="matrix(1,0,0,1,270,78)"><g clip-path="url(#d020750949)"><g style="fill:#c93ca6;fill-opacity:1;"><g transform="translate(1.282722, 108.307927)"><path style="stroke:none" d="M 62.359375 -60.5 C 62.359375 -60.5 62.039062 -60.472656 61.40625 -60.421875 C 60.769531 -60.367188 59.570312 -60.269531 57.8125 -60.125 C 56.0625 -59.976562 53.5 -59.8125 50.125 -59.625 C 46.757812 -59.445312 42.328125 -59.21875 36.828125 -58.9375 C 36.828125 -58.9375 36.804688 -58.484375 36.765625 -57.578125 C 36.734375 -56.671875 36.742188 -55.460938 36.796875 -53.953125 C 36.847656 -52.453125 37.007812 -50.832031 37.28125 -49.09375 C 37.550781 -47.363281 37.976562 -45.644531 38.5625 -43.9375 L 52.625 -44 C 52.625 -44 52.957031 -44.003906 53.625 -44.015625 C 54.300781 -44.035156 55.082031 -44.054688 55.96875 -44.078125 C 56.851562 -44.097656 57.628906 -44.113281 58.296875 -44.125 C 58.972656 -44.144531 59.289062 -44.175781 59.25 -44.21875 C 59.21875 -44.25 59.242188 -43.992188 59.328125 -43.453125 C 59.421875 -42.910156 59.519531 -42.273438 59.625 -41.546875 C 59.738281 -40.828125 59.84375 -40.191406 59.9375 -39.640625 C 60.03125 -39.097656 60.078125 -38.828125 60.078125 -38.828125 L 60.078125 -32.09375 C 60.078125 -32.09375 57.828125 -31.972656 53.328125 -31.734375 C 48.835938 -31.503906 42.160156 -31.351562 33.296875 -31.28125 L 32.921875 -17.546875 L 34.265625 -16.078125 L 60.78125 -15.859375 C 60.78125 -15.859375 60.539062 -15.882812 60.0625 -15.9375 C 59.59375 -15.988281 59.320312 -16.035156 59.25 -16.078125 C 59.21875 -16.109375 59.410156 -15.988281 59.828125 -15.71875 C 60.242188 -15.445312 60.660156 -15.175781 61.078125 -14.90625 C 61.492188 -14.632812 61.703125 -14.5 61.703125 -14.5 L 62.25 0.921875 C 62.25 0.921875 62.316406 0.898438 62.453125 0.859375 C 62.597656 0.828125 62.597656 0.789062 62.453125 0.75 C 62.316406 0.71875 61.820312 0.691406 60.96875 0.671875 C 60.113281 0.660156 58.695312 0.644531 56.71875 0.625 C 54.75 0.601562 51.992188 0.613281 48.453125 0.65625 C 44.035156 0.6875 39.90625 0.65625 36.0625 0.5625 C 32.226562 0.476562 28.84375 0.363281 25.90625 0.21875 C 22.976562 0.0703125 20.625 -0.0703125 18.84375 -0.21875 C 17.070312 -0.363281 16.039062 -0.472656 15.75 -0.546875 C 15.351562 -0.648438 14.960938 -1.035156 14.578125 -1.703125 C 14.203125 -2.378906 13.820312 -3.222656 13.4375 -4.234375 C 13.0625 -5.242188 12.675781 -6.273438 12.28125 -7.328125 C 11.988281 -8.160156 11.722656 -9.660156 11.484375 -11.828125 C 11.253906 -14.003906 11.066406 -16.640625 10.921875 -19.734375 C 10.773438 -22.835938 10.644531 -26.21875 10.53125 -29.875 C 10.425781 -33.53125 10.351562 -37.257812 10.3125 -41.0625 C 10.28125 -44.863281 10.253906 -48.535156 10.234375 -52.078125 C 10.222656 -55.628906 10.222656 -58.867188 10.234375 -61.796875 C 10.253906 -64.734375 10.269531 -67.144531 10.28125 -69.03125 C 10.300781 -70.914062 10.332031 -72.078125 10.375 -72.515625 C 10.445312 -73.671875 10.660156 -74.851562 11.015625 -76.0625 C 11.378906 -77.28125 11.734375 -78.296875 12.078125 -79.109375 C 12.421875 -79.921875 12.59375 -80.328125 12.59375 -80.328125 L 59.203125 -81.53125 L 62.625 -81.3125 C 62.625 -81.3125 62.695312 -80.863281 62.84375 -79.96875 C 62.988281 -79.082031 63.140625 -77.90625 63.296875 -76.4375 C 63.460938 -74.976562 63.570312 -73.332031 63.625 -71.5 C 63.675781 -69.675781 63.613281 -67.8125 63.4375 -65.90625 C 63.257812 -64.007812 62.898438 -62.207031 62.359375 -60.5 Z M 62.359375 -60.5 "/></g></g><g style="fill:#c93ca6;fill-opacity:1;"><g transform="translate(73.678087, 108.307927)"><path style="stroke:none" d="M 33.1875 -0.328125 L 11.078125 -13.625 L 10.8125 -16.734375 C 11.925781 -19.015625 13.257812 -21.570312 14.8125 -24.40625 C 16.375 -27.25 18.070312 -30.253906 19.90625 -33.421875 C 21.738281 -36.597656 23.628906 -39.832031 25.578125 -43.125 C 22.867188 -46.78125 20.316406 -50.242188 17.921875 -53.515625 C 15.535156 -56.796875 13.425781 -59.710938 11.59375 -62.265625 C 9.769531 -64.816406 8.335938 -66.816406 7.296875 -68.265625 C 6.265625 -69.710938 5.75 -70.4375 5.75 -70.4375 L 7.4375 -72.71875 C 7.4375 -72.71875 7.898438 -73.082031 8.828125 -73.8125 C 9.753906 -74.539062 11.140625 -75.460938 12.984375 -76.578125 C 14.828125 -77.703125 17.109375 -78.863281 19.828125 -80.0625 C 19.898438 -80.09375 20.34375 -79.570312 21.15625 -78.5 C 21.96875 -77.4375 23.070312 -75.953125 24.46875 -74.046875 C 25.863281 -72.148438 27.472656 -69.929688 29.296875 -67.390625 C 31.128906 -64.859375 33.09375 -62.128906 35.1875 -59.203125 C 38.125 -63.984375 40.710938 -68.109375 42.953125 -71.578125 C 45.203125 -75.054688 46.96875 -77.738281 48.25 -79.625 C 49.539062 -81.507812 50.1875 -82.453125 50.1875 -82.453125 L 52.953125 -81.734375 C 52.953125 -81.734375 53.34375 -81.507812 54.125 -81.0625 C 54.90625 -80.613281 55.953125 -80 57.265625 -79.21875 C 58.585938 -78.4375 60.046875 -77.535156 61.640625 -76.515625 C 63.234375 -75.503906 64.863281 -74.4375 66.53125 -73.3125 C 68.195312 -72.195312 69.78125 -71.066406 71.28125 -69.921875 C 72.789062 -68.785156 74.085938 -67.710938 75.171875 -66.703125 C 75.242188 -66.660156 74.90625 -66.03125 74.15625 -64.8125 C 73.414062 -63.601562 72.367188 -61.945312 71.015625 -59.84375 C 69.660156 -57.75 68.078125 -55.289062 66.265625 -52.46875 C 64.453125 -49.644531 62.492188 -46.582031 60.390625 -43.28125 C 58.296875 -39.988281 56.125 -36.566406 53.875 -33.015625 C 55.394531 -30.878906 56.941406 -28.6875 58.515625 -26.4375 C 60.097656 -24.195312 61.613281 -22.046875 63.0625 -19.984375 C 64.507812 -17.921875 65.789062 -16.070312 66.90625 -14.4375 C 68.03125 -12.8125 68.925781 -11.519531 69.59375 -10.5625 C 70.269531 -9.601562 70.609375 -9.125 70.609375 -9.125 L 59.90625 -1.1875 L 56.921875 -2.125 C 56.265625 -2.882812 55.410156 -3.929688 54.359375 -5.265625 C 53.316406 -6.609375 52.195312 -8.066406 51 -9.640625 C 49.800781 -11.210938 48.628906 -12.757812 47.484375 -14.28125 C 46.347656 -15.800781 45.347656 -17.101562 44.484375 -18.1875 C 42.347656 -14.789062 40.421875 -11.742188 38.703125 -9.046875 C 36.984375 -6.347656 35.632812 -4.21875 34.65625 -2.65625 C 33.675781 -1.101562 33.1875 -0.328125 33.1875 -0.328125 Z M 33.1875 -0.328125 "/></g></g><g style="fill:#c93ca6;fill-opacity:1;"><g transform="translate(152.319106, 108.307927)"><path style="stroke:none" d="M 4.671875 -34.21875 C 4.015625 -37.289062 3.53125 -40.609375 3.21875 -44.171875 C 2.914062 -47.742188 2.753906 -51.359375 2.734375 -55.015625 C 2.722656 -58.671875 2.789062 -62.171875 2.9375 -65.515625 C 3.082031 -68.867188 3.242188 -71.859375 3.421875 -74.484375 C 3.597656 -77.109375 3.769531 -79.191406 3.9375 -80.734375 C 4.101562 -82.273438 4.1875 -83.046875 4.1875 -83.046875 C 5.519531 -83.222656 7.351562 -83.320312 9.6875 -83.34375 C 12.03125 -83.363281 14.6875 -83.316406 17.65625 -83.203125 C 20.625 -83.097656 23.753906 -82.960938 27.046875 -82.796875 C 30.335938 -82.640625 33.625 -82.441406 36.90625 -82.203125 C 40.1875 -81.960938 43.3125 -81.722656 46.28125 -81.484375 C 49.25 -81.253906 51.898438 -81.03125 54.234375 -80.8125 C 56.566406 -80.601562 58.40625 -80.425781 59.75 -80.28125 C 59.820312 -79.550781 59.898438 -78.351562 59.984375 -76.6875 C 60.078125 -75.019531 60.175781 -73.035156 60.28125 -70.734375 C 60.394531 -68.441406 60.503906 -65.984375 60.609375 -63.359375 C 60.722656 -60.734375 60.816406 -58.085938 60.890625 -55.421875 C 60.960938 -52.765625 61.003906 -50.234375 61.015625 -47.828125 C 61.035156 -45.421875 61.019531 -43.28125 60.96875 -41.40625 C 60.914062 -39.539062 60.816406 -38.125 60.671875 -37.15625 C 58.890625 -37.039062 57.078125 -36.910156 55.234375 -36.765625 C 53.390625 -36.617188 51.253906 -36.457031 48.828125 -36.28125 C 46.398438 -36.101562 43.394531 -35.921875 39.8125 -35.734375 C 39.707031 -31.023438 39.597656 -26.550781 39.484375 -22.3125 C 39.378906 -18.082031 39.28125 -14.328125 39.1875 -11.046875 C 39.09375 -7.773438 39.019531 -5.195312 38.96875 -3.3125 C 38.914062 -1.425781 38.890625 -0.484375 38.890625 -0.484375 L 25.578125 -1.625 L 23.734375 -4.125 C 23.410156 -8.21875 23.179688 -12.804688 23.046875 -17.890625 C 22.921875 -22.984375 22.84375 -28.644531 22.8125 -34.875 C 21.25 -34.800781 19.5 -34.726562 17.5625 -34.65625 C 15.632812 -34.582031 13.742188 -34.515625 11.890625 -34.453125 C 10.046875 -34.398438 8.460938 -34.351562 7.140625 -34.3125 C 5.816406 -34.28125 4.992188 -34.25 4.671875 -34.21875 Z M 4.671875 -34.21875 "/></g></g><g style="fill:#c93ca6;fill-opacity:1;"><g transform="translate(215.970538, 108.307927)"><path style="stroke:none" d="M 62.359375 -60.5 C 62.359375 -60.5 62.039062 -60.472656 61.40625 -60.421875 C 60.769531 -60.367188 59.570312 -60.269531 57.8125 -60.125 C 56.0625 -59.976562 53.5 -59.8125 50.125 -59.625 C 46.757812 -59.445312 42.328125 -59.21875 36.828125 -58.9375 C 36.828125 -58.9375 36.804688 -58.484375 36.765625 -57.578125 C 36.734375 -56.671875 36.742188 -55.460938 36.796875 -53.953125 C 36.847656 -52.453125 37.007812 -50.832031 37.28125 -49.09375 C 37.550781 -47.363281 37.976562 -45.644531 38.5625 -43.9375 L 52.625 -44 C 52.625 -44 52.957031 -44.003906 53.625 -44.015625 C 54.300781 -44.035156 55.082031 -44.054688 55.96875 -44.078125 C 56.851562 -44.097656 57.628906 -44.113281 58.296875 -44.125 C 58.972656 -44.144531 59.289062 -44.175781 59.25 -44.21875 C 59.21875 -44.25 59.242188 -43.992188 59.328125 -43.453125 C 59.421875 -42.910156 59.519531 -42.273438 59.625 -41.546875 C 59.738281 -40.828125 59.84375 -40.191406 59.9375 -39.640625 C 60.03125 -39.097656 60.078125 -38.828125 60.078125 -38.828125 L 60.078125 -32.09375 C 60.078125 -32.09375 57.828125 -31.972656 53.328125 -31.734375 C 48.835938 -31.503906 42.160156 -31.351562 33.296875 -31.28125 L 32.921875 -17.546875 L 34.265625 -16.078125 L 60.78125 -15.859375 C 60.78125 -15.859375 60.539062 -15.882812 60.0625 -15.9375 C 59.59375 -15.988281 59.320312 -16.035156 59.25 -16.078125 C 59.21875 -16.109375 59.410156 -15.988281 59.828125 -15.71875 C 60.242188 -15.445312 60.660156 -15.175781 61.078125 -14.90625 C 61.492188 -14.632812 61.703125 -14.5 61.703125 -14.5 L 62.25 0.921875 C 62.25 0.921875 62.316406 0.898438 62.453125 0.859375 C 62.597656 0.828125 62.597656 0.789062 62.453125 0.75 C 62.316406 0.71875 61.820312 0.691406 60.96875 0.671875 C 60.113281 0.660156 58.695312 0.644531 56.71875 0.625 C 54.75 0.601562 51.992188 0.613281 48.453125 0.65625 C 44.035156 0.6875 39.90625 0.65625 36.0625 0.5625 C 32.226562 0.476562 28.84375 0.363281 25.90625 0.21875 C 22.976562 0.0703125 20.625 -0.0703125 18.84375 -0.21875 C 17.070312 -0.363281 16.039062 -0.472656 15.75 -0.546875 C 15.351562 -0.648438 14.960938 -1.035156 14.578125 -1.703125 C 14.203125 -2.378906 13.820312 -3.222656 13.4375 -4.234375 C 13.0625 -5.242188 12.675781 -6.273438 12.28125 -7.328125 C 11.988281 -8.160156 11.722656 -9.660156 11.484375 -11.828125 C 11.253906 -14.003906 11.066406 -16.640625 10.921875 -19.734375 C 10.773438 -22.835938 10.644531 -26.21875 10.53125 -29.875 C 10.425781 -33.53125 10.351562 -37.257812 10.3125 -41.0625 C 10.28125 -44.863281 10.253906 -48.535156 10.234375 -52.078125 C 10.222656 -55.628906 10.222656 -58.867188 10.234375 -61.796875 C 10.253906 -64.734375 10.269531 -67.144531 10.28125 -69.03125 C 10.300781 -70.914062 10.332031 -72.078125 10.375 -72.515625 C 10.445312 -73.671875 10.660156 -74.851562 11.015625 -76.0625 C 11.378906 -77.28125 11.734375 -78.296875 12.078125 -79.109375 C 12.421875 -79.921875 12.59375 -80.328125 12.59375 -80.328125 L 59.203125 -81.53125 L 62.625 -81.3125 C 62.625 -81.3125 62.695312 -80.863281 62.84375 -79.96875 C 62.988281 -79.082031 63.140625 -77.90625 63.296875 -76.4375 C 63.460938 -74.976562 63.570312 -73.332031 63.625 -71.5 C 63.675781 -69.675781 63.613281 -67.8125 63.4375 -65.90625 C 63.257812 -64.007812 62.898438 -62.207031 62.359375 -60.5 Z M 62.359375 -60.5 "/></g></g><g style="fill:#c93ca6;fill-opacity:1;"><g transform="translate(288.365903, 108.307927)"><path style="stroke:none" d="M 56.21875 -31.171875 C 56.21875 -31.171875 56.539062 -30.835938 57.1875 -30.171875 C 57.84375 -29.503906 58.703125 -28.617188 59.765625 -27.515625 C 60.835938 -26.410156 62.003906 -25.164062 63.265625 -23.78125 C 64.535156 -22.40625 65.804688 -21.007812 67.078125 -19.59375 C 68.347656 -18.1875 69.5 -16.847656 70.53125 -15.578125 C 71.5625 -14.316406 72.363281 -13.234375 72.9375 -12.328125 C 71.707031 -11.171875 70.601562 -10.078125 69.625 -9.046875 C 68.644531 -8.015625 67.664062 -7 66.6875 -6 C 65.71875 -5.007812 64.597656 -3.988281 63.328125 -2.9375 L 56.96875 0.703125 L 56.703125 0.875 C 56.671875 0.832031 56.5 0.789062 56.1875 0.75 C 55.875 0.71875 55.570312 0.679688 55.28125 0.640625 C 55 0.609375 54.859375 0.59375 54.859375 0.59375 L 37.46875 -27.484375 C 35.050781 -27.628906 32.953125 -27.816406 31.171875 -28.046875 C 29.398438 -28.285156 27.554688 -28.476562 25.640625 -28.625 L 25.640625 -1.6875 L 23.296875 -0.546875 L 11.515625 -1.359375 C 11.367188 -8.128906 11.210938 -14.707031 11.046875 -21.09375 C 10.890625 -27.488281 10.738281 -33.523438 10.59375 -39.203125 C 10.445312 -44.890625 10.3125 -50.097656 10.1875 -54.828125 C 10.0625 -59.554688 9.941406 -63.640625 9.828125 -67.078125 C 9.722656 -70.515625 9.640625 -73.175781 9.578125 -75.0625 C 9.523438 -76.945312 9.5 -77.890625 9.5 -77.890625 L 12.390625 -80.703125 C 12.890625 -80.890625 13.609375 -81.070312 14.546875 -81.25 C 15.492188 -81.4375 16.492188 -81.609375 17.546875 -81.765625 C 18.597656 -81.929688 19.59375 -82.066406 20.53125 -82.171875 C 21.46875 -82.285156 22.191406 -82.378906 22.703125 -82.453125 C 25.640625 -82.804688 28.644531 -83.035156 31.71875 -83.140625 C 34.789062 -83.253906 37.820312 -83.273438 40.8125 -83.203125 C 43.800781 -83.128906 46.609375 -83.007812 49.234375 -82.84375 C 51.859375 -82.6875 54.175781 -82.515625 56.1875 -82.328125 C 58.195312 -82.148438 59.769531 -82 60.90625 -81.875 C 62.050781 -81.75 62.625 -81.6875 62.625 -81.6875 C 63.019531 -78.75 63.234375 -75.460938 63.265625 -71.828125 C 63.304688 -68.191406 63.191406 -64.4375 62.921875 -60.5625 C 62.648438 -56.6875 62.210938 -52.898438 61.609375 -49.203125 C 61.015625 -45.515625 60.265625 -42.113281 59.359375 -39 C 58.453125 -35.882812 57.40625 -33.273438 56.21875 -31.171875 Z M 39.59375 -56.265625 L 22.921875 -56 C 22.921875 -56 22.882812 -55.597656 22.8125 -54.796875 C 22.738281 -54.003906 22.664062 -53.054688 22.59375 -51.953125 C 22.519531 -50.847656 22.457031 -49.804688 22.40625 -48.828125 C 22.351562 -47.847656 22.34375 -47.175781 22.375 -46.8125 C 22.34375 -46.34375 22.367188 -45.679688 22.453125 -44.828125 C 22.546875 -43.984375 22.644531 -43.21875 22.75 -42.53125 C 22.863281 -41.84375 22.921875 -41.5 22.921875 -41.5 C 22.921875 -41.5 23.207031 -41.441406 23.78125 -41.328125 C 24.363281 -41.222656 25.035156 -41.132812 25.796875 -41.0625 C 26.554688 -40.988281 27.191406 -40.96875 27.703125 -41 C 28.023438 -40.96875 28.628906 -40.976562 29.515625 -41.03125 C 30.398438 -41.082031 31.410156 -41.160156 32.546875 -41.265625 C 33.691406 -41.378906 34.804688 -41.5 35.890625 -41.625 C 36.984375 -41.757812 37.882812 -41.859375 38.59375 -41.921875 C 39.300781 -41.992188 39.65625 -42.03125 39.65625 -42.03125 C 39.976562 -43.414062 40.15625 -44.921875 40.1875 -46.546875 C 40.226562 -48.171875 40.191406 -49.71875 40.078125 -51.1875 C 39.972656 -52.65625 39.863281 -53.867188 39.75 -54.828125 C 39.644531 -55.785156 39.59375 -56.265625 39.59375 -56.265625 Z M 39.59375 -56.265625 "/></g></g><g style="fill:#c93ca6;fill-opacity:1;"><g transform="translate(362.010393, 108.307927)"><path style="stroke:none" d="M 48.984375 -34.59375 L 49.421875 -81.46875 C 49.535156 -81.71875 49.804688 -81.894531 50.234375 -82 C 50.671875 -82.113281 51.097656 -82.1875 51.515625 -82.21875 C 51.929688 -82.257812 52.140625 -82.28125 52.140625 -82.28125 C 52.140625 -82.28125 52.726562 -82.289062 53.90625 -82.3125 C 55.082031 -82.332031 56.738281 -82.25 58.875 -82.0625 C 61.007812 -81.882812 63.523438 -81.453125 66.421875 -80.765625 C 66.492188 -80.765625 66.539062 -79.992188 66.5625 -78.453125 C 66.582031 -76.910156 66.582031 -74.804688 66.5625 -72.140625 C 66.539062 -69.484375 66.492188 -66.410156 66.421875 -62.921875 C 66.347656 -59.429688 66.273438 -55.679688 66.203125 -51.671875 C 66.128906 -47.671875 66.046875 -43.597656 65.953125 -39.453125 C 65.867188 -35.304688 65.78125 -31.242188 65.6875 -27.265625 C 65.601562 -23.285156 65.515625 -19.554688 65.421875 -16.078125 C 65.328125 -12.597656 65.242188 -9.523438 65.171875 -6.859375 C 65.097656 -4.203125 65.039062 -2.113281 65 -0.59375 C 64.96875 0.925781 64.953125 1.6875 64.953125 1.6875 L 44.046875 1.09375 C 44.046875 1.09375 43.8125 0.703125 43.34375 -0.078125 C 42.875 -0.859375 42.285156 -1.816406 41.578125 -2.953125 C 40.867188 -4.097656 40.148438 -5.273438 39.421875 -6.484375 C 38.703125 -7.703125 38.070312 -8.753906 37.53125 -9.640625 C 36.988281 -10.523438 36.660156 -11.0625 36.546875 -11.25 C 36.441406 -11.425781 36.132812 -11.96875 35.625 -12.875 C 35.125 -13.78125 34.492188 -14.898438 33.734375 -16.234375 C 32.972656 -17.578125 32.179688 -18.972656 31.359375 -20.421875 C 30.546875 -21.867188 29.773438 -23.234375 29.046875 -24.515625 C 28.328125 -25.804688 27.738281 -26.847656 27.28125 -27.640625 C 26.832031 -28.441406 26.609375 -28.84375 26.609375 -28.84375 C 26.609375 -28.84375 26.625 -28.453125 26.65625 -27.671875 C 26.695312 -26.890625 26.734375 -25.875 26.765625 -24.625 C 26.804688 -23.375 26.851562 -22.039062 26.90625 -20.625 C 26.96875 -19.21875 27.015625 -17.863281 27.046875 -16.5625 C 27.085938 -15.257812 27.125 -14.15625 27.15625 -13.25 C 27.195312 -12.34375 27.21875 -11.800781 27.21875 -11.625 C 27.21875 -11.40625 27.207031 -10.851562 27.1875 -9.96875 C 27.164062 -9.082031 27.144531 -8.039062 27.125 -6.84375 C 27.113281 -5.644531 27.085938 -4.484375 27.046875 -3.359375 C 27.015625 -2.242188 26.988281 -1.304688 26.96875 -0.546875 C 26.945312 0.210938 26.9375 0.59375 26.9375 0.59375 L 25.203125 1.140625 L 11.453125 0.546875 L 9.609375 -1.953125 C 9.390625 -4.890625 9.21875 -8.128906 9.09375 -11.671875 C 8.96875 -15.222656 8.867188 -18.941406 8.796875 -22.828125 C 8.722656 -26.722656 8.6875 -30.644531 8.6875 -34.59375 C 8.6875 -38.539062 8.703125 -42.378906 8.734375 -46.109375 C 8.773438 -49.835938 8.820312 -53.3125 8.875 -56.53125 C 8.9375 -59.757812 8.992188 -62.585938 9.046875 -65.015625 C 9.097656 -67.441406 9.140625 -69.34375 9.171875 -70.71875 C 9.210938 -72.09375 9.234375 -72.78125 9.234375 -72.78125 L 11.953125 -73.59375 C 11.953125 -73.59375 12.554688 -73.601562 13.765625 -73.625 C 14.984375 -73.644531 16.578125 -73.625 18.546875 -73.5625 C 20.523438 -73.507812 22.660156 -73.375 24.953125 -73.15625 C 27.253906 -72.9375 29.492188 -72.578125 31.671875 -72.078125 L 31.71875 -72.015625 C 31.71875 -72.015625 31.914062 -71.613281 32.3125 -70.8125 C 32.71875 -70.019531 33.242188 -68.953125 33.890625 -67.609375 C 34.546875 -66.273438 35.269531 -64.8125 36.0625 -63.21875 C 36.863281 -61.625 37.660156 -60.007812 38.453125 -58.375 C 39.253906 -56.75 40 -55.238281 40.6875 -53.84375 C 41.375 -52.457031 41.941406 -51.300781 42.390625 -50.375 C 42.847656 -49.445312 43.109375 -48.914062 43.171875 -48.78125 C 43.285156 -48.5625 43.550781 -47.941406 43.96875 -46.921875 C 44.382812 -45.910156 44.875 -44.71875 45.4375 -43.34375 C 46 -41.96875 46.550781 -40.609375 47.09375 -39.265625 C 47.632812 -37.929688 48.082031 -36.816406 48.4375 -35.921875 C 48.800781 -35.035156 48.984375 -34.59375 48.984375 -34.59375 Z M 48.984375 -34.59375 "/></g></g><g style="fill:#c93ca6;fill-opacity:1;"><g transform="translate(433.156606, 108.307927)"><path style="stroke:none" d="M 9.171875 -80.28125 C 11.890625 -80.925781 14.859375 -81.363281 18.078125 -81.59375 C 21.304688 -81.832031 24.566406 -81.925781 27.859375 -81.875 C 31.160156 -81.820312 34.296875 -81.695312 37.265625 -81.5 C 40.234375 -81.300781 42.835938 -81.09375 45.078125 -80.875 C 47.328125 -80.65625 48.972656 -80.492188 50.015625 -80.390625 C 51.066406 -71.335938 52.171875 -62.488281 53.328125 -53.84375 C 54.492188 -45.207031 55.628906 -36.570312 56.734375 -27.9375 C 57.835938 -19.300781 58.820312 -10.441406 59.6875 -1.359375 C 58.382812 -1.359375 56.8125 -1.335938 54.96875 -1.296875 C 53.125 -1.265625 51.238281 -1.238281 49.3125 -1.21875 C 47.394531 -1.195312 45.675781 -1.207031 44.15625 -1.25 C 43.976562 -1.9375 43.832031 -2.46875 43.71875 -2.84375 C 43.613281 -3.226562 43.515625 -3.632812 43.421875 -4.0625 C 43.328125 -4.5 43.21875 -5.144531 43.09375 -6 C 42.96875 -6.851562 42.773438 -8.113281 42.515625 -9.78125 C 42.265625 -11.445312 41.941406 -13.707031 41.546875 -16.5625 L 31.71875 -17.21875 L 30.90625 -0.484375 L 4.78125 -1.796875 L 2.9375 -3.859375 C 3.257812 -10.804688 3.644531 -17.503906 4.09375 -23.953125 C 4.550781 -30.398438 5.050781 -36.71875 5.59375 -42.90625 C 6.132812 -49.101562 6.703125 -55.273438 7.296875 -61.421875 C 7.898438 -67.578125 8.523438 -73.863281 9.171875 -80.28125 Z M 28.625 -31.125 L 42.03125 -30.359375 L 40.953125 -47.796875 C 37.691406 -48.015625 35.191406 -48.101562 33.453125 -48.0625 C 31.710938 -48.03125 30.488281 -47.929688 29.78125 -47.765625 C 29.082031 -47.609375 28.671875 -47.445312 28.546875 -47.28125 C 28.421875 -47.113281 28.359375 -47.03125 28.359375 -47.03125 Z M 28.625 -31.125 "/></g></g><g style="fill:#c93ca6;fill-opacity:1;"><g transform="translate(495.993418, 108.307927)"><path style="stroke:none" d="M 63.5 0.328125 L 62.25 1.578125 L 13.09375 0.546875 L 11.25 -1.953125 C 11.03125 -4.890625 10.851562 -8.25 10.71875 -12.03125 C 10.59375 -15.8125 10.492188 -19.835938 10.421875 -24.109375 C 10.347656 -28.390625 10.3125 -32.742188 10.3125 -37.171875 C 10.3125 -41.609375 10.328125 -45.945312 10.359375 -50.1875 C 10.398438 -54.425781 10.445312 -58.398438 10.5 -62.109375 C 10.5625 -65.816406 10.617188 -69.082031 10.671875 -71.90625 C 10.722656 -74.726562 10.765625 -76.9375 10.796875 -78.53125 C 10.835938 -80.125 10.859375 -80.921875 10.859375 -80.921875 L 13.578125 -81.734375 C 13.578125 -81.734375 14.164062 -81.742188 15.34375 -81.765625 C 16.519531 -81.785156 18.175781 -81.703125 20.3125 -81.515625 C 22.445312 -81.335938 24.960938 -80.90625 27.859375 -80.21875 C 27.929688 -80.21875 27.976562 -79.535156 28 -78.171875 C 28.019531 -76.816406 28.019531 -74.960938 28 -72.609375 C 27.976562 -70.265625 27.957031 -67.570312 27.9375 -64.53125 C 27.925781 -61.488281 27.890625 -58.253906 27.828125 -54.828125 C 27.773438 -51.410156 27.722656 -47.960938 27.671875 -44.484375 C 27.617188 -41.003906 27.554688 -37.65625 27.484375 -34.4375 C 31.109375 -34.394531 34.679688 -34.285156 38.203125 -34.109375 C 41.734375 -33.929688 45.109375 -33.710938 48.328125 -33.453125 C 51.554688 -33.203125 54.507812 -32.941406 57.1875 -32.671875 C 59.875 -32.398438 62.175781 -32.15625 64.09375 -31.9375 C 64.164062 -30.925781 64.238281 -29.601562 64.3125 -27.96875 C 64.382812 -26.34375 64.445312 -24.566406 64.5 -22.640625 C 64.550781 -20.722656 64.601562 -18.8125 64.65625 -16.90625 C 64.707031 -15.007812 64.742188 -13.253906 64.765625 -11.640625 C 64.785156 -10.035156 64.796875 -8.742188 64.796875 -7.765625 Z M 63.5 0.328125 "/></g></g><g style="fill:#c93ca6;fill-opacity:1;"><g transform="translate(117.447067, 263.882251)"><path style="stroke:none" d="M 66.859375 -41.109375 C 66.859375 -41.109375 67.007812 -40.472656 67.3125 -39.203125 C 67.625 -37.941406 67.925781 -36.160156 68.21875 -33.859375 C 68.507812 -31.566406 68.625 -28.832031 68.5625 -25.65625 C 68.507812 -22.488281 68.140625 -18.984375 67.453125 -15.140625 C 66.765625 -11.304688 65.585938 -7.238281 63.921875 -2.9375 L 61.96875 -1.90625 L 39.921875 -1.359375 L 10.921875 -3.15625 C 10.921875 -5.90625 10.898438 -9.097656 10.859375 -12.734375 C 10.828125 -16.367188 10.78125 -20.257812 10.71875 -24.40625 C 10.664062 -28.5625 10.613281 -32.789062 10.5625 -37.09375 C 10.507812 -41.40625 10.453125 -45.625 10.390625 -49.75 C 10.335938 -53.875 10.285156 -57.75 10.234375 -61.375 C 10.179688 -65 10.132812 -68.191406 10.09375 -70.953125 C 10.0625 -73.722656 10.035156 -75.894531 10.015625 -77.46875 C 10.003906 -79.050781 10.015625 -79.859375 10.046875 -79.890625 L 10.8125 -80.765625 C 13.851562 -81.597656 17.082031 -82.15625 20.5 -82.4375 C 23.925781 -82.726562 27.347656 -82.859375 30.765625 -82.828125 C 34.191406 -82.796875 37.46875 -82.675781 40.59375 -82.46875 C 43.726562 -82.269531 46.546875 -82.070312 49.046875 -81.875 C 51.546875 -81.675781 53.554688 -81.5625 55.078125 -81.53125 L 61.53125 -80.546875 C 61.53125 -80.546875 61.648438 -80.117188 61.890625 -79.265625 C 62.128906 -78.421875 62.398438 -77.253906 62.703125 -75.765625 C 63.015625 -74.285156 63.296875 -72.617188 63.546875 -70.765625 C 63.796875 -68.921875 63.945312 -66.972656 64 -64.921875 C 64.0625 -62.878906 63.960938 -60.863281 63.703125 -58.875 C 63.453125 -56.882812 62.945312 -55.039062 62.1875 -53.34375 C 61.863281 -53.007812 61.363281 -52.570312 60.6875 -52.03125 C 60.019531 -51.488281 59.304688 -50.910156 58.546875 -50.296875 C 57.785156 -49.679688 57.070312 -49.097656 56.40625 -48.546875 C 55.738281 -48.003906 55.238281 -47.570312 54.90625 -47.25 Z M 23.1875 -52.84375 L 36.0625 -52.09375 C 37.070312 -53.789062 37.800781 -55.597656 38.25 -57.515625 C 38.707031 -59.429688 38.78125 -61.296875 38.46875 -63.109375 C 38.164062 -64.921875 37.363281 -66.515625 36.0625 -67.890625 C 35.695312 -67.890625 35.015625 -67.863281 34.015625 -67.8125 C 33.023438 -67.757812 31.90625 -67.695312 30.65625 -67.625 C 29.40625 -67.550781 28.191406 -67.476562 27.015625 -67.40625 C 25.835938 -67.332031 24.859375 -67.265625 24.078125 -67.203125 C 23.304688 -67.148438 22.921875 -67.125 22.921875 -67.125 C 22.921875 -67.125 22.890625 -66.769531 22.828125 -66.0625 C 22.773438 -65.363281 22.722656 -64.453125 22.671875 -63.328125 C 22.617188 -62.203125 22.59375 -60.988281 22.59375 -59.6875 C 22.59375 -58.382812 22.632812 -57.125 22.71875 -55.90625 C 22.8125 -54.695312 22.96875 -53.675781 23.1875 -52.84375 Z M 25.640625 -21.9375 L 42.359375 -20.96875 C 43.660156 -23.132812 44.601562 -25.457031 45.1875 -27.9375 C 45.769531 -30.425781 45.867188 -32.851562 45.484375 -35.21875 C 45.109375 -37.59375 44.066406 -39.6875 42.359375 -41.5 C 41.890625 -41.5 41.019531 -41.460938 39.75 -41.390625 C 38.488281 -41.316406 37.039062 -41.234375 35.40625 -41.140625 C 33.78125 -41.046875 32.195312 -40.953125 30.65625 -40.859375 C 29.125 -40.773438 27.847656 -40.695312 26.828125 -40.625 C 25.816406 -40.550781 25.3125 -40.515625 25.3125 -40.515625 C 25.3125 -40.515625 25.273438 -40.050781 25.203125 -39.125 C 25.128906 -38.207031 25.054688 -37.015625 24.984375 -35.546875 C 24.910156 -34.078125 24.875 -32.5 24.875 -30.8125 C 24.875 -29.132812 24.925781 -27.507812 25.03125 -25.9375 C 25.144531 -24.363281 25.347656 -23.03125 25.640625 -21.9375 Z M 25.640625 -21.9375 "/></g></g><g style="fill:#c93ca6;fill-opacity:1;"><g transform="translate(191.308798, 263.882251)"><path style="stroke:none" d="M 56.21875 -31.171875 C 56.21875 -31.171875 56.539062 -30.835938 57.1875 -30.171875 C 57.84375 -29.503906 58.703125 -28.617188 59.765625 -27.515625 C 60.835938 -26.410156 62.003906 -25.164062 63.265625 -23.78125 C 64.535156 -22.40625 65.804688 -21.007812 67.078125 -19.59375 C 68.347656 -18.1875 69.5 -16.847656 70.53125 -15.578125 C 71.5625 -14.316406 72.363281 -13.234375 72.9375 -12.328125 C 71.707031 -11.171875 70.601562 -10.078125 69.625 -9.046875 C 68.644531 -8.015625 67.664062 -7 66.6875 -6 C 65.71875 -5.007812 64.597656 -3.988281 63.328125 -2.9375 L 56.96875 0.703125 L 56.703125 0.875 C 56.671875 0.832031 56.5 0.789062 56.1875 0.75 C 55.875 0.71875 55.570312 0.679688 55.28125 0.640625 C 55 0.609375 54.859375 0.59375 54.859375 0.59375 L 37.46875 -27.484375 C 35.050781 -27.628906 32.953125 -27.816406 31.171875 -28.046875 C 29.398438 -28.285156 27.554688 -28.476562 25.640625 -28.625 L 25.640625 -1.6875 L 23.296875 -0.546875 L 11.515625 -1.359375 C 11.367188 -8.128906 11.210938 -14.707031 11.046875 -21.09375 C 10.890625 -27.488281 10.738281 -33.523438 10.59375 -39.203125 C 10.445312 -44.890625 10.3125 -50.097656 10.1875 -54.828125 C 10.0625 -59.554688 9.941406 -63.640625 9.828125 -67.078125 C 9.722656 -70.515625 9.640625 -73.175781 9.578125 -75.0625 C 9.523438 -76.945312 9.5 -77.890625 9.5 -77.890625 L 12.390625 -80.703125 C 12.890625 -80.890625 13.609375 -81.070312 14.546875 -81.25 C 15.492188 -81.4375 16.492188 -81.609375 17.546875 -81.765625 C 18.597656 -81.929688 19.59375 -82.066406 20.53125 -82.171875 C 21.46875 -82.285156 22.191406 -82.378906 22.703125 -82.453125 C 25.640625 -82.804688 28.644531 -83.035156 31.71875 -83.140625 C 34.789062 -83.253906 37.820312 -83.273438 40.8125 -83.203125 C 43.800781 -83.128906 46.609375 -83.007812 49.234375 -82.84375 C 51.859375 -82.6875 54.175781 -82.515625 56.1875 -82.328125 C 58.195312 -82.148438 59.769531 -82 60.90625 -81.875 C 62.050781 -81.75 62.625 -81.6875 62.625 -81.6875 C 63.019531 -78.75 63.234375 -75.460938 63.265625 -71.828125 C 63.304688 -68.191406 63.191406 -64.4375 62.921875 -60.5625 C 62.648438 -56.6875 62.210938 -52.898438 61.609375 -49.203125 C 61.015625 -45.515625 60.265625 -42.113281 59.359375 -39 C 58.453125 -35.882812 57.40625 -33.273438 56.21875 -31.171875 Z M 39.59375 -56.265625 L 22.921875 -56 C 22.921875 -56 22.882812 -55.597656 22.8125 -54.796875 C 22.738281 -54.003906 22.664062 -53.054688 22.59375 -51.953125 C 22.519531 -50.847656 22.457031 -49.804688 22.40625 -48.828125 C 22.351562 -47.847656 22.34375 -47.175781 22.375 -46.8125 C 22.34375 -46.34375 22.367188 -45.679688 22.453125 -44.828125 C 22.546875 -43.984375 22.644531 -43.21875 22.75 -42.53125 C 22.863281 -41.84375 22.921875 -41.5 22.921875 -41.5 C 22.921875 -41.5 23.207031 -41.441406 23.78125 -41.328125 C 24.363281 -41.222656 25.035156 -41.132812 25.796875 -41.0625 C 26.554688 -40.988281 27.191406 -40.96875 27.703125 -41 C 28.023438 -40.96875 28.628906 -40.976562 29.515625 -41.03125 C 30.398438 -41.082031 31.410156 -41.160156 32.546875 -41.265625 C 33.691406 -41.378906 34.804688 -41.5 35.890625 -41.625 C 36.984375 -41.757812 37.882812 -41.859375 38.59375 -41.921875 C 39.300781 -41.992188 39.65625 -42.03125 39.65625 -42.03125 C 39.976562 -43.414062 40.15625 -44.921875 40.1875 -46.546875 C 40.226562 -48.171875 40.191406 -49.71875 40.078125 -51.1875 C 39.972656 -52.65625 39.863281 -53.867188 39.75 -54.828125 C 39.644531 -55.785156 39.59375 -56.265625 39.59375 -56.265625 Z M 39.59375 -56.265625 "/></g></g><g style="fill:#c93ca6;fill-opacity:1;"><g transform="translate(264.953287, 263.882251)"><path style="stroke:none" d="M 9.171875 -80.28125 C 11.890625 -80.925781 14.859375 -81.363281 18.078125 -81.59375 C 21.304688 -81.832031 24.566406 -81.925781 27.859375 -81.875 C 31.160156 -81.820312 34.296875 -81.695312 37.265625 -81.5 C 40.234375 -81.300781 42.835938 -81.09375 45.078125 -80.875 C 47.328125 -80.65625 48.972656 -80.492188 50.015625 -80.390625 C 51.066406 -71.335938 52.171875 -62.488281 53.328125 -53.84375 C 54.492188 -45.207031 55.628906 -36.570312 56.734375 -27.9375 C 57.835938 -19.300781 58.820312 -10.441406 59.6875 -1.359375 C 58.382812 -1.359375 56.8125 -1.335938 54.96875 -1.296875 C 53.125 -1.265625 51.238281 -1.238281 49.3125 -1.21875 C 47.394531 -1.195312 45.675781 -1.207031 44.15625 -1.25 C 43.976562 -1.9375 43.832031 -2.46875 43.71875 -2.84375 C 43.613281 -3.226562 43.515625 -3.632812 43.421875 -4.0625 C 43.328125 -4.5 43.21875 -5.144531 43.09375 -6 C 42.96875 -6.851562 42.773438 -8.113281 42.515625 -9.78125 C 42.265625 -11.445312 41.941406 -13.707031 41.546875 -16.5625 L 31.71875 -17.21875 L 30.90625 -0.484375 L 4.78125 -1.796875 L 2.9375 -3.859375 C 3.257812 -10.804688 3.644531 -17.503906 4.09375 -23.953125 C 4.550781 -30.398438 5.050781 -36.71875 5.59375 -42.90625 C 6.132812 -49.101562 6.703125 -55.273438 7.296875 -61.421875 C 7.898438 -67.578125 8.523438 -73.863281 9.171875 -80.28125 Z M 28.625 -31.125 L 42.03125 -30.359375 L 40.953125 -47.796875 C 37.691406 -48.015625 35.191406 -48.101562 33.453125 -48.0625 C 31.710938 -48.03125 30.488281 -47.929688 29.78125 -47.765625 C 29.082031 -47.609375 28.671875 -47.445312 28.546875 -47.28125 C 28.421875 -47.113281 28.359375 -47.03125 28.359375 -47.03125 Z M 28.625 -31.125 "/></g></g><g style="fill:#c93ca6;fill-opacity:1;"><g transform="translate(327.790074, 263.882251)"><path style="stroke:none" d="M 7.390625 -24.546875 L 15.53125 -24.5 C 15.53125 -24.5 15.519531 -24.992188 15.5 -25.984375 C 15.488281 -26.984375 15.484375 -28.332031 15.484375 -30.03125 C 15.484375 -31.738281 15.472656 -33.648438 15.453125 -35.765625 C 15.429688 -37.878906 15.429688 -40.054688 15.453125 -42.296875 C 15.472656 -44.546875 15.488281 -46.722656 15.5 -48.828125 C 15.519531 -50.929688 15.550781 -52.796875 15.59375 -54.421875 L 8.359375 -54.640625 L 7.390625 -55.40625 C 7.242188 -55.550781 7.097656 -56.140625 6.953125 -57.171875 C 6.804688 -58.203125 6.675781 -59.53125 6.5625 -61.15625 C 6.457031 -62.78125 6.359375 -64.539062 6.265625 -66.4375 C 6.179688 -68.34375 6.109375 -70.238281 6.046875 -72.125 C 5.992188 -74.007812 5.945312 -75.738281 5.90625 -77.3125 C 5.875 -78.882812 5.847656 -80.140625 5.828125 -81.078125 C 5.816406 -82.023438 5.8125 -82.5 5.8125 -82.5 C 6.28125 -82.644531 7.238281 -82.796875 8.6875 -82.953125 C 10.132812 -83.117188 11.898438 -83.273438 13.984375 -83.421875 C 16.066406 -83.566406 18.285156 -83.6875 20.640625 -83.78125 C 22.992188 -83.875 25.347656 -83.890625 27.703125 -83.828125 C 30.054688 -83.773438 32.226562 -83.640625 34.21875 -83.421875 C 36.207031 -83.203125 37.835938 -82.878906 39.109375 -82.453125 C 39.109375 -82.453125 39.148438 -82.023438 39.234375 -81.171875 C 39.328125 -80.316406 39.4375 -79.175781 39.5625 -77.75 C 39.6875 -76.320312 39.820312 -74.726562 39.96875 -72.96875 C 40.113281 -71.21875 40.222656 -69.4375 40.296875 -67.625 C 40.367188 -65.8125 40.382812 -64.097656 40.34375 -62.484375 C 40.3125 -60.878906 40.207031 -59.492188 40.03125 -58.328125 C 39.707031 -58.328125 39.082031 -58.304688 38.15625 -58.265625 C 37.226562 -58.234375 36.210938 -58.191406 35.109375 -58.140625 C 34.003906 -58.085938 32.988281 -58.03125 32.0625 -57.96875 C 31.144531 -57.914062 30.488281 -57.875 30.09375 -57.84375 C 30.050781 -55.457031 29.992188 -52.710938 29.921875 -49.609375 C 29.847656 -46.515625 29.765625 -43.273438 29.671875 -39.890625 C 29.585938 -36.503906 29.5 -33.144531 29.40625 -29.8125 C 29.320312 -26.488281 29.242188 -23.394531 29.171875 -20.53125 C 29.523438 -20.488281 30.097656 -20.441406 30.890625 -20.390625 C 31.691406 -20.335938 32.554688 -20.285156 33.484375 -20.234375 C 34.410156 -20.179688 35.28125 -20.132812 36.09375 -20.09375 C 36.90625 -20.0625 37.492188 -20.023438 37.859375 -19.984375 C 38.078125 -18.609375 38.1875 -17.066406 38.1875 -15.359375 C 38.1875 -13.660156 38.117188 -11.953125 37.984375 -10.234375 C 37.859375 -8.515625 37.710938 -6.941406 37.546875 -5.515625 C 37.390625 -4.085938 37.25 -2.9375 37.125 -2.0625 C 37 -1.195312 36.9375 -0.765625 36.9375 -0.765625 C 35.664062 -0.328125 34.078125 0 32.171875 0.21875 C 30.273438 0.4375 28.238281 0.570312 26.0625 0.625 C 23.894531 0.675781 21.722656 0.65625 19.546875 0.5625 C 17.378906 0.476562 15.34375 0.363281 13.4375 0.21875 C 11.539062 0.0703125 9.910156 -0.078125 8.546875 -0.234375 C 7.191406 -0.398438 6.28125 -0.554688 5.8125 -0.703125 C 5.8125 -0.703125 5.773438 -1.15625 5.703125 -2.0625 C 5.628906 -2.96875 5.546875 -4.171875 5.453125 -5.671875 C 5.367188 -7.179688 5.316406 -8.832031 5.296875 -10.625 C 5.273438 -12.414062 5.316406 -14.207031 5.421875 -16 C 5.535156 -17.789062 5.742188 -19.4375 6.046875 -20.9375 C 6.359375 -22.4375 6.804688 -23.640625 7.390625 -24.546875 Z M 7.390625 -24.546875 "/></g></g><g style="fill:#c93ca6;fill-opacity:1;"><g transform="translate(375.202794, 263.882251)"><path style="stroke:none" d="M 48.984375 -34.59375 L 49.421875 -81.46875 C 49.535156 -81.71875 49.804688 -81.894531 50.234375 -82 C 50.671875 -82.113281 51.097656 -82.1875 51.515625 -82.21875 C 51.929688 -82.257812 52.140625 -82.28125 52.140625 -82.28125 C 52.140625 -82.28125 52.726562 -82.289062 53.90625 -82.3125 C 55.082031 -82.332031 56.738281 -82.25 58.875 -82.0625 C 61.007812 -81.882812 63.523438 -81.453125 66.421875 -80.765625 C 66.492188 -80.765625 66.539062 -79.992188 66.5625 -78.453125 C 66.582031 -76.910156 66.582031 -74.804688 66.5625 -72.140625 C 66.539062 -69.484375 66.492188 -66.410156 66.421875 -62.921875 C 66.347656 -59.429688 66.273438 -55.679688 66.203125 -51.671875 C 66.128906 -47.671875 66.046875 -43.597656 65.953125 -39.453125 C 65.867188 -35.304688 65.78125 -31.242188 65.6875 -27.265625 C 65.601562 -23.285156 65.515625 -19.554688 65.421875 -16.078125 C 65.328125 -12.597656 65.242188 -9.523438 65.171875 -6.859375 C 65.097656 -4.203125 65.039062 -2.113281 65 -0.59375 C 64.96875 0.925781 64.953125 1.6875 64.953125 1.6875 L 44.046875 1.09375 C 44.046875 1.09375 43.8125 0.703125 43.34375 -0.078125 C 42.875 -0.859375 42.285156 -1.816406 41.578125 -2.953125 C 40.867188 -4.097656 40.148438 -5.273438 39.421875 -6.484375 C 38.703125 -7.703125 38.070312 -8.753906 37.53125 -9.640625 C 36.988281 -10.523438 36.660156 -11.0625 36.546875 -11.25 C 36.441406 -11.425781 36.132812 -11.96875 35.625 -12.875 C 35.125 -13.78125 34.492188 -14.898438 33.734375 -16.234375 C 32.972656 -17.578125 32.179688 -18.972656 31.359375 -20.421875 C 30.546875 -21.867188 29.773438 -23.234375 29.046875 -24.515625 C 28.328125 -25.804688 27.738281 -26.847656 27.28125 -27.640625 C 26.832031 -28.441406 26.609375 -28.84375 26.609375 -28.84375 C 26.609375 -28.84375 26.625 -28.453125 26.65625 -27.671875 C 26.695312 -26.890625 26.734375 -25.875 26.765625 -24.625 C 26.804688 -23.375 26.851562 -22.039062 26.90625 -20.625 C 26.96875 -19.21875 27.015625 -17.863281 27.046875 -16.5625 C 27.085938 -15.257812 27.125 -14.15625 27.15625 -13.25 C 27.195312 -12.34375 27.21875 -11.800781 27.21875 -11.625 C 27.21875 -11.40625 27.207031 -10.851562 27.1875 -9.96875 C 27.164062 -9.082031 27.144531 -8.039062 27.125 -6.84375 C 27.113281 -5.644531 27.085938 -4.484375 27.046875 -3.359375 C 27.015625 -2.242188 26.988281 -1.304688 26.96875 -0.546875 C 26.945312 0.210938 26.9375 0.59375 26.9375 0.59375 L 25.203125 1.140625 L 11.453125 0.546875 L 9.609375 -1.953125 C 9.390625 -4.890625 9.21875 -8.128906 9.09375 -11.671875 C 8.96875 -15.222656 8.867188 -18.941406 8.796875 -22.828125 C 8.722656 -26.722656 8.6875 -30.644531 8.6875 -34.59375 C 8.6875 -38.539062 8.703125 -42.378906 8.734375 -46.109375 C 8.773438 -49.835938 8.820312 -53.3125 8.875 -56.53125 C 8.9375 -59.757812 8.992188 -62.585938 9.046875 -65.015625 C 9.097656 -67.441406 9.140625 -69.34375 9.171875 -70.71875 C 9.210938 -72.09375 9.234375 -72.78125 9.234375 -72.78125 L 11.953125 -73.59375 C 11.953125 -73.59375 12.554688 -73.601562 13.765625 -73.625 C 14.984375 -73.644531 16.578125 -73.625 18.546875 -73.5625 C 20.523438 -73.507812 22.660156 -73.375 24.953125 -73.15625 C 27.253906 -72.9375 29.492188 -72.578125 31.671875 -72.078125 L 31.71875 -72.015625 C 31.71875 -72.015625 31.914062 -71.613281 32.3125 -70.8125 C 32.71875 -70.019531 33.242188 -68.953125 33.890625 -67.609375 C 34.546875 -66.273438 35.269531 -64.8125 36.0625 -63.21875 C 36.863281 -61.625 37.660156 -60.007812 38.453125 -58.375 C 39.253906 -56.75 40 -55.238281 40.6875 -53.84375 C 41.375 -52.457031 41.941406 -51.300781 42.390625 -50.375 C 42.847656 -49.445312 43.109375 -48.914062 43.171875 -48.78125 C 43.285156 -48.5625 43.550781 -47.941406 43.96875 -46.921875 C 44.382812 -45.910156 44.875 -44.71875 45.4375 -43.34375 C 46 -41.96875 46.550781 -40.609375 47.09375 -39.265625 C 47.632812 -37.929688 48.082031 -36.816406 48.4375 -35.921875 C 48.800781 -35.035156 48.984375 -34.59375 48.984375 -34.59375 Z M 48.984375 -34.59375 "/></g></g></g></g></g></svg>